<?xml version="1.0" encoding="utf-8"?>
<!-- Generator: Adobe Illustrator 23.0.3, SVG Export Plug-In . SVG Version: 6.00 Build 0)  -->
<svg version="1.1" id="Layer_1" xmlns="http://www.w3.org/2000/svg" xmlns:xlink="http://www.w3.org/1999/xlink" x="0px" y="0px"
	 viewBox="0 0 140 40" style="enable-background:new 0 0 140 40;" xml:space="preserve">
<style type="text/css">
	.st0{fill:#2A9C47;}
	.st1{fill:#77CF16;}
	.st2{fill:#77CF15;}
	.st3{fill:#363636;}
	.st4{fill:#FDEF38;}
	.st5{fill:#8DCA4C;}
	.st6{fill:#299C46;}
	.st7{fill:#FFFFFF;stroke:#FFFFFF;stroke-width:0.25;stroke-miterlimit:10;}
</style>
<title>logo</title>
<g>
	
		<image style="overflow:visible;opacity:0.25;" width="135" height="141" xlink:href="E40F11F8.png"  transform="matrix(1 0 0 1 -49.117 -50)">
	</image>
	<g>
		
			<image style="overflow:visible;opacity:0.25;" width="60" height="69" xlink:href="E40F11FB.png"  transform="matrix(1 0 0 1 -11.117 -14)">
		</image>
		<g>
			<g>
				<path class="st0" d="M32.5,9c-1.6,1.4-3,2.9-4.7,4.4c-1.6-0.9-3-1.7-4.7-2.6S20,8.8,18.4,8c-0.1-0.1-0.3-0.1-0.6-0.1
					c-0.1,0-0.3,0-0.4,0.1c-3.1,1.9-6.4,3.7-9.5,5.5H7.8c-1.4-1.4-2.8-2.9-4.4-4.4V9C3.7,8.7,3.9,8.7,4,8.7c4.5-2.4,9-5.1,13.5-7.5
					c0.1-0.1,0.3-0.1,0.4-0.3c0.1,0,0.1,0,0.3,0c0.1,0.1,0.3,0.3,0.6,0.3c4.5,2.4,8.8,5,13.3,7.2C32.1,8.5,32.4,8.8,32.5,9z"/>
				<path class="st1" d="M32.7,29.6c-0.7,0.4-1.4,0.9-2.3,1.3c-4,2.4-7.8,5-11.8,7.4c-0.1,0.1-0.3,0.1-0.6,0.3c0-2.6,0-5.4-0.1-8
					c1.1-0.6,2.1-1.3,3.4-1.9c2.1-1.3,4.4-2.4,6.7-3.8c1.4,1.4,2.7,2.7,4.2,4.2C32.4,29.2,32.5,29.4,32.7,29.6
					C32.7,29.5,32.7,29.5,32.7,29.6z"/>
				<path class="st2" d="M3.7,29.2L3.7,29.2L3.7,29.2C3.6,22.6,3.6,15.6,3.6,9C5,10.5,6.5,12,8,13.4c0,4,0,7.7,0,11.6c-1,1-2,2-3,3
					C4.4,28.4,4,28.7,3.7,29.2z"/>
				<path class="st3" d="M8.1,13.4c3.1-1.9,6.4-3.7,9.5-5.5c0.1,0,0.3-0.1,0.4-0.1c0,4,0,8,0,11.9c-3.4,1.7-6.7,3.5-9.9,5.2
					C8.1,21,8.1,17.2,8.1,13.4z"/>
				<path class="st4" d="M8.1,24.8c3.4-1.7,6.7-3.5,9.9-5.2c3.4,1.7,6.7,3.5,10,5.2c-2.1,1.3-4.4,2.4-6.7,3.8
					c-1.1,0.6-2.1,1.3-3.4,1.9C14.8,28.7,11.4,26.8,8.1,24.8L8.1,24.8z"/>
				<path class="st5" d="M8.1,24.8L8.1,24.8C8.1,25,8.1,25,8.1,24.8C8,21,8,17.2,8,13.4h0.1C8.1,17.2,8.1,21,8.1,24.8z"/>
				<path class="st6" d="M8,25C8.1,25,8.1,25,8,25c3.5,1.9,6.8,3.8,10,5.7c0,2.6,0,5.4,0.1,8c-0.1,0-0.3-0.1-0.4-0.1
					c-4.7-3-9.1-6-13.8-9c-0.1-0.1-0.3-0.1-0.4-0.3c0.4-0.4,0.7-0.7,1.1-1.1C5.9,27,6.9,26,8,25z"/>
			</g>
		</g>
	</g>
</g>
<g>
	
		<image style="overflow:visible;opacity:0.25;" width="126" height="48" xlink:href="E40F11FF.png"  transform="matrix(1 0 0 1 24.883 5)">
	</image>
	<g>
		<g>
			<path class="st7" d="M56.1,28.5c0,2.2-0.7,4-2,5.3c-1.5,1.6-3.4,2.4-5.8,2.4c-2.3,0-4.3-0.8-5.9-2.4c-1.6-1.6-2.4-3.6-2.4-5.9
				s0.8-4.3,2.4-5.9c1.6-1.6,3.5-2.4,5.9-2.4c1.2,0,2.3,0.2,3.3,0.6c1,0.4,1.9,1,2.6,1.8l-1.5,1.5c-0.5-0.6-1.1-1.1-1.9-1.4
				c-0.8-0.3-1.6-0.5-2.5-0.5c-1.7,0-3.2,0.6-4.4,1.8c-1.2,1.2-1.8,2.7-1.8,4.5s0.6,3.3,1.8,4.5c1.2,1.2,2.7,1.8,4.4,1.8
				c1.6,0,2.9-0.4,3.9-1.3s1.7-2.1,1.8-3.7h-5.8v-1.9h7.7C56,27.7,56.1,28.1,56.1,28.5z"/>
			<path class="st7" d="M70,19.9v2h-7.2v5h6.5v1.9h-6.5v5H70v2h-9.3V19.9H70z"/>
			<path class="st7" d="M77,35.8h-2V19.9h2.5l7.7,12.4h0.1l-0.1-3.1v-9.3h2v15.9h-2.1l-8.1-13H77l0.1,3.1V35.8z"/>
			<path class="st7" d="M101.9,19.9v2h-7.2v5h6.5v1.9h-6.5v5h7.2v2h-9.3V19.9H101.9z"/>
			<path class="st7" d="M116.9,35.8H106v-2.1l8.4-11.8h-8.1v-2h10.5V22l-8.4,11.8h8.5V35.8z"/>
			<path class="st7" d="M122.5,35.8h-2.3l6-15.9h2.3l6,15.9h-2.3l-1.5-4.3h-6.7L122.5,35.8z M127.4,22.4l-2.6,7.2h5.3L127.4,22.4
				L127.4,22.4z"/>
		</g>
	</g>
</g>
</svg>
