<?xml version="1.0" encoding="utf-8"?>
<!-- Generator: Adobe Illustrator 22.1.0, SVG Export Plug-In . SVG Version: 6.00 Build 0)  -->
<svg version="1.1" id="Capa_1" xmlns="http://www.w3.org/2000/svg" xmlns:xlink="http://www.w3.org/1999/xlink" x="0px" y="0px"
	 viewBox="0 0 50 50" style="enable-background:new 0 0 50 50;" xml:space="preserve">
<style type="text/css">
	.st0{fill:#00A859;}
	.st1{fill:#FDFFFE;stroke:#FFFFFF;stroke-width:0.5;stroke-miterlimit:10;}
</style>
<rect class="st0" width="50" height="50"/>
<path class="st1" d="M34.2,16.8c-0.4-1.5-3.4-3-8.6-3s-8.2,1.4-8.6,3c0,0.1-0.1,0.1-0.1,0.2v0.2v4v0.2v0.2v3.8v0.2v0.2v4.2
	c0,0.1,0,0.1,0.1,0.2c0.4,1.7,4.1,3,8.6,3s8.2-1.3,8.6-3c0-0.1,0.1-0.1,0.1-0.2v-4.2v-0.2v-0.2v-3.8v-0.2v-0.2v-4V17
	C34.2,16.9,34.2,16.8,34.2,16.8z M33.5,25.6c0,0.1,0,0.1-0.1,0.2c0,0,0,0.1-0.1,0.1c0,0.1-0.1,0.1-0.1,0.2l-0.1,0.1
	c0,0.1-0.1,0.1-0.2,0.2L33,26.4c-0.1,0.1-0.1,0.1-0.2,0.2l-0.1,0.1c-0.1,0.1-0.2,0.1-0.2,0.2c0,0-0.1,0-0.1,0.1
	c-0.1,0.1-0.2,0.1-0.3,0.2c0,0,0,0-0.1,0c-0.2,0.1-0.2,0.2-0.4,0.2l0,0c-0.8,0.3-1.8,0.6-3,0.7l0,0c-0.2,0-0.5,0.1-0.7,0.1
	c0,0-0.1,0-0.2,0c-0.2,0-0.4,0.1-0.6,0.1c-0.1,0-0.2,0-0.3,0c-0.2,0-0.3,0-0.5,0c-0.2,0-0.6,0-0.9,0s-0.6,0-0.9,0
	c-0.2,0-0.3,0-0.5,0c-0.1,0-0.2,0-0.3,0c-0.2,0-0.4,0-0.6-0.1c0,0-0.1,0-0.2,0c-0.2,0-0.5-0.1-0.7-0.1l0,0c-1.2-0.2-2.2-0.5-3-0.7
	l0,0c-0.2-0.1-0.3-0.1-0.4-0.2c0,0,0,0-0.1,0c-0.1-0.1-0.2-0.1-0.3-0.2c0,0-0.1,0-0.1-0.1c-0.1-0.1-0.2-0.1-0.2-0.2l-0.1-0.1
	c-0.1-0.1-0.2-0.1-0.2-0.2l-0.1-0.1c-0.1-0.1-0.1-0.1-0.2-0.2L17.6,26c0-0.1-0.1-0.1-0.1-0.2c0,0,0-0.1-0.1-0.1c0-0.1,0-0.1-0.1-0.2
	c0-0.1,0-0.1,0-0.2v-0.1c0-0.1,0-0.1,0-0.2v-2.6l0,0c0.1,0.1,0.2,0.2,0.2,0.2c1.3,1,3.9,1.8,7.8,1.8c3.8,0,6.4-0.8,7.8-1.8
	c0.1-0.1,0.2-0.2,0.3-0.2l0,0v2.6c0,0.1,0,0.1,0,0.2v0.1C33.6,25.6,33.5,25.6,33.5,25.6z M33.6,18.4V21c0,0.1,0,0.1,0,0.2v0.1
	c0,0.1,0,0.1,0,0.2s0,0.1-0.1,0.2c0,0,0,0.1-0.1,0.1c0,0.1-0.1,0.1-0.1,0.2l-0.1,0.1c0,0.1-0.1,0.1-0.2,0.2L33,22.1
	c-0.1,0.1-0.1,0.1-0.2,0.2l-0.1,0.1c-0.1,0.1-0.2,0.1-0.2,0.2c0,0-0.1,0-0.1,0.1c-0.1,0.1-0.2,0.1-0.3,0.2c0,0,0,0-0.1,0
	c-0.2,0.1-0.2,0.2-0.4,0.2l0,0c-0.8,0.3-1.8,0.6-3,0.7l0,0c-0.2,0-0.5,0.1-0.7,0.1c0,0-0.1,0-0.2,0c-0.2,0-0.4,0.1-0.6,0.1
	c-0.1,0-0.2,0-0.3,0c-0.2,0-0.3,0-0.5,0c-0.2,0-0.6,0-0.9,0s-0.6,0-0.9,0c-0.2,0-0.3,0-0.5,0c-0.1,0-0.2,0-0.3,0
	c-0.2,0-0.4,0-0.6-0.1c0,0-0.1,0-0.2,0c-0.2,0-0.5-0.1-0.7-0.1l0,0c-1.2-0.2-2.2-0.5-3-0.7l0,0c-0.2-0.1-0.3-0.1-0.4-0.2
	c0,0,0,0-0.1,0c-0.1-0.1-0.2-0.1-0.3-0.2c0,0-0.1,0-0.1-0.1c-0.1-0.1-0.2-0.1-0.2-0.2l-0.1-0.1c-0.1-0.1-0.2-0.1-0.2-0.2L17.9,22
	c-0.1-0.1-0.1-0.1-0.2-0.2l-0.1-0.1c0-0.1-0.1-0.1-0.1-0.2c0,0,0-0.1-0.1-0.1c0-0.1,0-0.1-0.1-0.2c0-0.1,0-0.1,0-0.2v-0.1
	c0-0.1,0-0.1,0-0.2v-2.6c0.1,0,0.1,0.1,0.2,0.1l0.1,0.1c0.1,0.1,0.2,0.2,0.3,0.2c0,0,0.1,0,0.1,0.1c0.1,0.1,0.2,0.2,0.3,0.2
	s0.1,0.1,0.2,0.1c0.2,0.1,0.2,0.2,0.4,0.2H19c0.2,0.1,0.3,0.2,0.5,0.2c0.1,0,0.1,0,0.2,0.1c0.2,0.1,0.3,0.1,0.5,0.2
	c0.1,0,0.1,0,0.2,0.1c0.2,0.1,0.4,0.1,0.6,0.2H21c0.2,0.1,0.4,0.1,0.6,0.1c0.1,0,0.2,0,0.2,0c0.2,0,0.4,0.1,0.6,0.1
	c0.1,0,0.1,0,0.2,0c0.2,0,0.6,0.1,0.8,0.1c0.1,0,0.2,0,0.2,0c0.2,0,0.5,0,0.6,0c0.1,0,0.2,0,0.2,0c0.3,0,0.6,0,1,0c0.3,0,0.6,0,1,0
	c0.1,0,0.2,0,0.2,0c0.2,0,0.5,0,0.6,0c0.1,0,0.2,0,0.2,0c0.2,0,0.6-0.1,0.8-0.1c0.1,0,0.1,0,0.2,0c0.2,0,0.4-0.1,0.6-0.1
	c0.1,0,0.2,0,0.2,0c0.2,0,0.4-0.1,0.6-0.1h0.1c0.2-0.1,0.4-0.1,0.6-0.2c0.1,0,0.1,0,0.2-0.1c0.2-0.1,0.3-0.1,0.5-0.2
	c0.1,0,0.1,0,0.2-0.1c0.2-0.1,0.3-0.2,0.5-0.2h0.1c0.2-0.1,0.2-0.2,0.4-0.2c0.1,0,0.1-0.1,0.2-0.1c0.1-0.1,0.2-0.2,0.3-0.2
	c0,0,0.1,0,0.1-0.1c0.2-0.1,0.2-0.2,0.3-0.2L33.6,18.4C33.5,18.5,33.5,18.5,33.6,18.4z M25.5,14.5c4.7,0,8,1.4,8,2.6
	c0,1.2-3.3,2.6-8,2.6s-8-1.4-8-2.6C17.5,15.9,20.8,14.5,25.5,14.5z M33.6,29.7C33.6,29.8,33.6,29.8,33.6,29.7
	c-0.2,1.3-3.4,2.6-8,2.6s-7.8-1.3-8-2.5c0,0,0,0,0-0.1v-3l0,0c0.1,0.1,0.2,0.2,0.2,0.2c1.3,1,3.9,1.8,7.8,1.8c3.8,0,6.4-0.8,7.8-1.8
	c0.1-0.1,0.2-0.2,0.3-0.2l0,0L33.6,29.7L33.6,29.7z"/>
</svg>
