<?xml version="1.0" encoding="utf-8"?>
<!-- Generator: Adobe Illustrator 22.1.0, SVG Export Plug-In . SVG Version: 6.00 Build 0)  -->
<svg version="1.1" id="Capa_1" xmlns="http://www.w3.org/2000/svg" xmlns:xlink="http://www.w3.org/1999/xlink" x="0px" y="0px"
	 viewBox="0 0 50 50" style="enable-background:new 0 0 50 50;" xml:space="preserve">
<style type="text/css">
	.st0{fill:#00A859;}
	.st1{fill:#FFFFFF;}
</style>
<rect class="st0" width="50" height="50"/>
<g>
	<g id="c43_terminal">
		<path class="st1" d="M35.6,14.4H14.4c-1,0-1.8,0.8-1.8,1.8v17.6c0,1,0.8,1.8,1.8,1.8h21.1c1,0,1.8-0.8,1.8-1.8V16.2
			C37.3,15.2,36.5,14.4,35.6,14.4z M18.4,15.7c0.5,0,0.9,0.4,0.9,0.9c0,0.5-0.4,0.9-0.9,0.9s-0.9-0.4-0.9-0.9
			C17.5,16.1,17.9,15.7,18.4,15.7z M15.7,15.7c0.5,0,0.9,0.4,0.9,0.9c0,0.5-0.4,0.9-0.9,0.9s-0.9-0.4-0.9-0.9
			C14.8,16.1,15.2,15.7,15.7,15.7z M35.6,33.8H14.4v-15h21.1V33.8z"/>
		<polygon class="st1" points="22.5,22.4 16.8,19.9 16.8,21.2 21.2,23 21.2,23 16.8,24.9 16.8,26.1 22.5,23.6 		"/>
		<rect x="25.2" y="22.4" class="st1" width="3.1" height="1.2"/>
	</g>
	<g id="Capa_1_86_">
	</g>
</g>
</svg>
