<?xml version="1.0" encoding="utf-8"?>
<!-- Generator: Adobe Illustrator 22.1.0, SVG Export Plug-In . SVG Version: 6.00 Build 0)  -->
<svg version="1.1" id="Capa_1" xmlns="http://www.w3.org/2000/svg" xmlns:xlink="http://www.w3.org/1999/xlink" x="0px" y="0px"
	 viewBox="0 0 50 50" style="enable-background:new 0 0 50 50;" xml:space="preserve">
<style type="text/css">
	.st0{fill:#00A859;}
	.st1{fill:#FFFFFF;stroke:#FFFFFF;stroke-width:0.25;stroke-miterlimit:10;}
</style>
<rect class="st0" width="50" height="50"/>
<path class="st1" d="M27,21.1c-2.2,0-4.1,1.8-4.1,4.1c0,2.2,1.8,4.1,4.1,4.1s4.1-1.8,4.1-4.1S29.3,21.1,27,21.1z M27,28.4
	c-1.8,0-3.2-1.4-3.2-3.2c0-1.8,1.4-3.2,3.2-3.2s3.2,1.4,3.2,3.2C30.2,27,28.8,28.4,27,28.4z"/>
<path class="st1" d="M27,23.1c-0.2,0-0.5,0.2-0.5,0.5c0,0.2,0.2,0.5,0.5,0.5c0.6,0,1.2,0.6,1.2,1.2c0,0.2,0.2,0.5,0.5,0.5
	s0.5-0.2,0.5-0.5C29.1,24,28.2,23.1,27,23.1z"/>
<path class="st1" d="M15.4,16.8c-0.1-0.2-0.4-0.3-0.6-0.2c-0.2,0.1-0.3,0.4-0.2,0.6l1.3,2.4c0.1,0.2,0.2,0.2,0.4,0.2
	s0.3-0.1,0.4-0.2l0.8-1.6l0.8,1.6c0.1,0.2,0.2,0.2,0.4,0.2l0,0c0.2,0,0.3-0.1,0.4-0.2l1.2-2.4c0.1-0.2,0-0.5-0.2-0.6
	c-0.2-0.1-0.5,0-0.6,0.2l-0.8,1.6l-0.8-1.6c-0.1-0.2-0.2-0.2-0.4-0.2S17,16.6,17,16.8l-0.8,1.6L15.4,16.8z"/>
<path class="st1" d="M18.4,14.2c0.2,0,0.2-0.1,0.3-0.2c0.1-0.1,0.2-0.2,0.2-0.3s-0.1-0.2-0.2-0.3c-0.1-0.1-0.2-0.2-0.3-0.2
	c-0.2,0-0.2,0.1-0.3,0.2c-0.1,0.1-0.2,0.2-0.2,0.3s0.1,0.2,0.2,0.3C18.2,14.2,18.3,14.2,18.4,14.2z"/>
<path class="st1" d="M36.4,21.3v-6.2c0-1-0.8-1.8-1.8-1.8H20.4c-0.2,0-0.5,0.2-0.5,0.5c0,0.2,0.2,0.5,0.5,0.5h14.2c0.5,0,1,0.4,1,1
	v6.2c0,0.5-0.4,1-1,1h-2.2l0,0c-0.7-1.3-1.9-2.2-3.3-2.7l0.7-1.4l0.8,1.6c0.1,0.2,0.2,0.2,0.4,0.2l0,0c0.2,0,0.3-0.1,0.4-0.2
	l1.2-2.4c0.1-0.2,0-0.5-0.2-0.6c-0.2-0.1-0.5,0-0.6,0.2l-0.8,1.6L30.1,17c-0.1-0.2-0.2-0.2-0.4-0.2c-0.2,0-0.3,0.1-0.4,0.2l-0.8,1.6
	L27.7,17c-0.1-0.2-0.4-0.3-0.6-0.2s-0.3,0.4-0.2,0.6l1,2c-0.3-0.1-0.6-0.1-0.9-0.1c-0.6,0-1.1,0.1-1.7,0.2l1-2.2
	c0.1-0.2,0-0.5-0.2-0.6c-0.2-0.1-0.5,0-0.6,0.2l-0.8,1.6L23.8,17c-0.1-0.2-0.2-0.2-0.4-0.2c-0.2,0-0.3,0.1-0.4,0.2l-0.8,1.6L21.4,17
	c-0.1-0.2-0.4-0.3-0.6-0.2c-0.2,0.2-0.3,0.4-0.2,0.6l1.3,2.4c0.1,0.2,0.2,0.2,0.4,0.2c0.2,0,0.3-0.1,0.4-0.2l0.8-1.6l0.8,1.6
	c0,0,0,0.1,0.1,0.1c-1.1,0.6-2.1,1.4-2.7,2.5h-7.4c-0.5,0-1-0.4-1-1v-6.2c0-0.5,0.4-1,1-1h1.9c0.2,0,0.5-0.2,0.5-0.5
	c0-0.2-0.2-0.5-0.5-0.5h-1.9c-1,0-1.8,0.8-1.8,1.8v6.2c0,1,0.8,1.8,1.8,1.8h6.9c-0.2,0.6-0.3,1.4-0.3,2.1c0,3.4,2.7,6.1,6.1,6.1
	c1.1,0,2.2-0.3,3-0.8l3.7,3.7c0.3,0.3,0.7,0.5,1.1,0.5c0.4,0,0.8-0.2,1.1-0.5c0.6-0.6,0.6-1.6,0-2.2l-1.4-1.4
	c-0.2-0.2-0.5-0.2-0.6,0c-0.2,0.2-0.2,0.5,0,0.6l1.4,1.4c0.2,0.2,0.2,0.6,0,0.9c-0.2,0.2-0.6,0.2-0.9,0L30.7,30
	c1.4-1.1,2.2-2.8,2.2-4.7c0-0.7-0.2-1.4-0.3-2.1h1.8C35.6,23.1,36.4,22.3,36.4,21.3z M27,30.3c-2.8,0-5.1-2.3-5.1-5.1
	s2.3-5.1,5.1-5.1s5.1,2.3,5.1,5.1S29.8,30.3,27,30.3z"/>
<path class="st1" d="M32.7,29.4c-0.1,0.1-0.2,0.2-0.2,0.3c0,0.2,0.1,0.2,0.2,0.3c0.1,0.1,0.2,0.2,0.3,0.2s0.2-0.1,0.3-0.2
	s0.2-0.2,0.2-0.3c0-0.2-0.1-0.2-0.2-0.3c-0.1-0.1-0.2-0.2-0.3-0.2S32.8,29.3,32.7,29.4z"/>
</svg>
