<?xml version="1.0" encoding="utf-8"?>
<!-- Generator: Adobe Illustrator 22.1.0, SVG Export Plug-In . SVG Version: 6.00 Build 0)  -->
<svg version="1.1" id="Capa_1" xmlns="http://www.w3.org/2000/svg" xmlns:xlink="http://www.w3.org/1999/xlink" x="0px" y="0px"
	 viewBox="0 0 50 50" style="enable-background:new 0 0 50 50;" xml:space="preserve">
<style type="text/css">
	.st0{fill:#00A859;}
	.st1{fill:#FFFFFF;}
</style>
<rect class="st0" width="50" height="50"/>
<g>
	<g>
		<g>
			<path class="st1" d="M33.9,12.9H14.6c-1.1,0-2.1,1-2.1,2.1v13.8c0,1.1,1,2.1,2.1,2.1h6.2v1.5c-1.6,0.3-2.7,1.7-2.7,3.4
				c0,0.4,0.3,0.7,0.7,0.7h11c0.4,0,0.7-0.3,0.7-0.7c0-1.7-1.2-3-2.7-3.4v-1.5h6.2c1.1,0,2.1-1,2.1-2.1V15
				C36,13.9,35,12.9,33.9,12.9z M29,34.9h-9.4c0.3-0.8,1-1.4,1.9-1.4h5.4C27.9,33.6,28.7,34.1,29,34.9z M22.2,32.2v-1.4h4.1v1.4
				H22.2z M34.6,28.8c0,0.4-0.3,0.7-0.7,0.7c-1,0-18.2,0-19.3,0c-0.4,0-0.7-0.3-0.7-0.7v-0.7h20.6L34.6,28.8L34.6,28.8z M34.6,26.7
				H14V15c0-0.4,0.3-0.7,0.7-0.7H34c0.4,0,0.7,0.3,0.7,0.7L34.6,26.7L34.6,26.7z"/>
		</g>
	</g>
	<g>
		<g>
			<path class="st1" d="M20.2,17.1h-2.8c-0.4,0-0.7,0.3-0.7,0.7c0,0.4,0.3,0.7,0.7,0.7h2.8c0.4,0,0.7-0.3,0.7-0.7
				C20.9,17.4,20.6,17.1,20.2,17.1z"/>
		</g>
	</g>
	<g>
		<g>
			<path class="st1" d="M20.2,19.9h-2.8c-0.4,0-0.7,0.3-0.7,0.7s0.3,0.7,0.7,0.7h2.8c0.4,0,0.7-0.3,0.7-0.7S20.6,19.9,20.2,19.9z"/>
		</g>
	</g>
	<g>
		<g>
			<path class="st1" d="M20.2,22.6h-2.8c-0.4,0-0.7,0.3-0.7,0.7s0.3,0.7,0.7,0.7h2.8c0.4,0,0.7-0.3,0.7-0.7S20.6,22.6,20.2,22.6z"/>
		</g>
	</g>
	<g>
		<g>
			<path class="st1" d="M31.5,17.8c-0.1-0.1,0.6,0.4-3.4-2.1c-0.2-0.2-0.5-0.2-0.7,0l-3.4,2.1c-0.2,0.2-0.3,0.3-0.3,0.6v4.2
				c0,0.2,0.2,0.5,0.3,0.6l3.4,2.1c0.2,0.2,0.5,0.2,0.7,0l3.4-2.1c0.2-0.2,0.3-0.3,0.3-0.6v-4.2C31.8,18.1,31.5,17.9,31.5,17.8z
				 M27,23.4L25,22.1v-2.6l2.1,1.3V23.4z M27.7,19.7l-2.1-1.3l2.1-1.3l2.1,1.3L27.7,19.7z M30.5,22.2l-2.1,1.3v-2.6l2.1-1.3V22.2z"
				/>
		</g>
	</g>
</g>
</svg>
