<?xml version="1.0" encoding="UTF-8"?>
<!DOCTYPE svg PUBLIC "-//W3C//DTD SVG 1.1//EN" "http://www.w3.org/Graphics/SVG/1.1/DTD/svg11.dtd">
<!-- Creator: CorelDRAW 2018 (64-Bit) -->
<svg xmlns="http://www.w3.org/2000/svg" xml:space="preserve" width="584.2mm" height="457.2mm" version="1.1" style="shape-rendering:geometricPrecision; text-rendering:geometricPrecision; image-rendering:optimizeQuality; fill-rule:evenodd; clip-rule:evenodd"
viewBox="0 0 58420 45720"
 xmlns:xlink="http://www.w3.org/1999/xlink">
 <defs>
  <style type="text/css">
   <![CDATA[
    .fil1 {fill:#00A859}
    .fil3 {fill:#373435;fill-rule:nonzero}
    .fil2 {fill:#00A859;fill-rule:nonzero}
    .fil0 {fill:#3E4095;fill-rule:nonzero}
   ]]>
  </style>
 </defs>
 <g id="Layer_x0020_1">
  <metadata id="CorelCorpID_0Corel-Layer"/>
  <path class="fil0" d="M13537.21 13132.75l1947.47 0c613.82,0 1080.51,45.79 1396.92,138.9 316.4,91.58 572.69,279.32 767.28,560.18 194.59,282.38 291.09,735.71 291.09,1361.52 0,424.34 -68.03,718.93 -205.66,885.3 -137.64,167.9 -408.17,296.12 -813.16,384.65 450.88,99.21 756.21,262.54 917.57,489.97 159.78,228.95 240.47,578.49 240.47,1048.62l0 671.6c0,488.44 -56.95,850.19 -174.03,1086.78 -115.48,235.06 -300.58,395.33 -553.71,482.34 -253.12,87 -772.02,129.74 -1556.7,129.74l-2257.54 0 0 -7239.6zm1952.21 1237.89l0 1610.32c82.27,-3.05 147.13,-4.57 194.59,-4.57 191.42,0 313.23,-45.8 365.44,-135.85 52.22,-91.59 79.1,-351.07 79.1,-779.98 0,-227.43 -22.15,-386.17 -64.86,-476.23 -44.3,-91.58 -99.66,-149.59 -169.27,-172.48 -69.61,-24.42 -205.67,-38.16 -405,-41.21zm0 2736.79l0 2025.5c273.69,-7.63 449.3,-50.37 525.23,-125.16 75.94,-73.27 113.9,-257.96 113.9,-549.5l0 -674.65c0,-309.86 -34.8,-497.6 -102.82,-563.24 -68.03,-65.63 -246.8,-103.79 -536.31,-112.95zm5106.77 -2669.63l-74.36 778.45c272.1,-557.13 666.03,-853.25 1181.77,-885.3l0 2088.08c-343.29,0 -594.84,44.27 -756.21,134.33 -159.78,90.05 -259.44,213.69 -295.83,373.96 -37.97,158.74 -55.37,526.6 -55.37,1102.04l0 2342.99 -1873.11 0 0 -5934.55 1873.11 0zm3451.96 -1305.05l0 943.3 -1928.48 0 0 -943.3 1928.48 0zm0 1305.05l0 5934.55 -1928.48 0 0 -5934.55 1928.48 0zm4931.15 -1305.05l0 7239.6 -1871.52 0 0 -428.91c-180.36,178.58 -368.62,312.91 -566.36,401.44 -197.76,90.05 -405.01,134.32 -620.16,134.32 -291.09,0 -542.63,-73.27 -756.2,-221.33 -213.57,-146.53 -349.63,-317.48 -409.74,-511.33 -60.13,-193.85 -90.19,-509.81 -90.19,-947.88l0 -2778.01c0,-454.86 30.06,-778.45 90.19,-969.25 60.11,-190.8 197.74,-358.7 414.48,-503.7 216.74,-145.01 474.61,-216.75 773.6,-216.75 232.56,0 444.56,39.69 637.56,120.58 193.01,80.9 368.61,201.49 526.82,361.76l0 -1680.54 1871.52 0zm-1871.52 2799.37c0,-218.27 -18.99,-363.28 -58.54,-438.07 -37.97,-74.79 -115.48,-112.95 -229.39,-112.95 -110.75,0 -186.69,33.58 -224.65,100.74 -37.97,67.16 -58.53,216.74 -58.53,450.28l0 2906.22c0,241.17 18.98,399.91 56.95,476.23 36.38,76.32 107.58,114.48 211.99,114.48 120.23,0 200.92,-42.74 242.05,-128.22 39.55,-83.95 60.12,-293.06 60.12,-622.76l0 -2745.95zm6797.94 -1494.32l0 4569.97c0,618.18 -14.23,1016.57 -42.72,1196.68 -30.05,180.11 -134.47,370.91 -313.23,572.39 -178.77,201.48 -428.73,355.65 -748.3,460.97 -319.57,105.32 -722.98,158.74 -1208.66,158.74 -594.85,0 -1074.2,-97.69 -1436.48,-293.07 -360.69,-195.37 -547.38,-578.49 -560.04,-1150.88l1816.16 0c0,261.01 99.67,392.28 297.42,392.28 142.39,0 235.72,-39.69 281.61,-120.59 47.46,-79.37 69.61,-248.8 69.61,-505.23l0 -447.23c-159.79,140.43 -329.07,245.75 -506.25,317.49 -178.77,71.74 -363.87,108.37 -558.45,108.37 -336.97,0 -615.41,-65.63 -832.15,-196.9 -218.32,-131.27 -367.03,-303.75 -447.71,-517.44 -80.69,-212.17 -120.24,-515.92 -120.24,-909.72l0 -2155.25c0,-563.23 104.42,-969.25 314.83,-1216.52 210.41,-247.27 529.98,-370.91 958.71,-370.91 235.72,0 449.29,45.79 642.29,138.9 193.01,91.58 365.45,230.48 517.32,415.18l134.47 -447.23 1741.81 0zm-1876.28 1575.22c0,-271.7 -15.81,-444.18 -49.04,-518.97 -31.64,-74.79 -104.41,-112.95 -215.16,-112.95 -107.57,0 -185.09,42.74 -229.39,128.21 -44.3,85.48 -68.02,251.86 -68.02,503.71l0 1993.45c0,265.59 17.4,438.07 52.21,517.44 33.21,77.84 104.41,117.53 211.98,117.53 124.98,0 204.08,-47.32 242.06,-143.48 36.38,-94.64 55.36,-311.38 55.36,-647.18l0 -1837.76zm6785.29 1497.37l-2425.23 0 0 1283.69c0,268.64 20.56,441.12 60.11,518.96 41.13,76.32 118.65,116.01 232.56,116.01 142.38,0 237.3,-51.9 284.76,-154.16 47.45,-103.8 72.78,-302.23 72.78,-596.82l0 -783.03 1775.02 0 0 438.07c0,366.33 -25.31,648.71 -72.77,845.61 -47.46,196.91 -159.79,406.02 -335.39,630.4 -177.19,222.85 -400.26,390.75 -670.78,502.17 -268.94,112.96 -609.07,167.91 -1017.24,167.91 -395.5,0 -743.54,-54.95 -1047.3,-164.85 -302.16,-109.9 -537.88,-261.01 -705.57,-453.34 -169.29,-192.32 -286.35,-404.49 -351.22,-634.97 -64.86,-232.01 -96.5,-567.81 -96.5,-1008.93l0 -1730.92c0,-518.96 72.78,-928.03 216.74,-1227.2 145.54,-299.17 384.43,-529.65 715.07,-688.4 330.64,-160.27 710.33,-239.64 1139.06,-239.64 525.23,0 958.7,96.16 1300.42,288.49 341.71,192.32 580.6,447.22 718.24,764.71 137.63,317.49 207.24,763.19 207.24,1338.63l0 787.61zm-1877.86 -966.19l0 -433.49c0,-306.81 -17.4,-505.23 -50.62,-595.29 -34.81,-88.53 -104.41,-134.32 -208.83,-134.32 -129.73,0 -210.41,38.16 -240.46,114.48 -31.65,76.32 -47.46,280.85 -47.46,615.13l0 433.49 547.37 0z"/>
  <path class="fil1" d="M10364.69 23316.25c-10966.73,-5093.97 3654.09,-6653.28 8606.66,-6599.44 13414.54,-321.4 26622.55,2592.99 33427.8,5645.09 -10331.65,-2980.58 -21214.09,-5823.47 -37191.19,-3984.77 -3404.45,613.67 -9011.98,1433.88 -4843.27,4939.12z"/>
  <g id="_1884538104432">
   <path class="fil2" d="M12448.59 22818.53l-591.81 0 0 -389.77c0,-113.25 -6.72,-184.03 -19.19,-212.34 -12.48,-27.84 -40.32,-41.99 -83.52,-41.99 -48.95,0 -79.67,16.98 -93.11,50.96 -12.96,34.44 -19.68,108.06 -19.68,221.3l0 1039.53c0,109.01 6.72,179.79 19.68,212.82 13.44,33.5 42.71,50.02 88.79,50.02 44.15,0 72.96,-16.52 86.4,-50.02 13.43,-33.03 20.63,-110.89 20.63,-233.58l0 -280.29 591.81 0 0 86.82c0,231.22 -16.81,395.43 -49.93,492.17 -33.11,96.73 -107.03,181.67 -220.78,254.33 -113.75,72.67 -254.38,109.48 -420.93,109.48 -173.75,0 -316.77,-31.15 -429.09,-92.96 -112.31,-61.82 -187.19,-147.22 -223.66,-256.23 -36.48,-109.47 -54.72,-273.68 -54.72,-493.1l0 -653.54c0,-161.38 5.76,-282.18 16.8,-362.87 11.51,-80.69 44.63,-158.55 100.79,-233.1 55.68,-74.56 132.95,-133.54 231.83,-176.48 98.87,-42.47 212.62,-64.18 340.77,-64.18 174.71,0 318.7,33.51 431.98,99.57 113.27,66.53 187.66,149.11 223.66,248.2 35.52,99.09 53.28,253.4 53.28,462.43l0 212.82zm1480.68 72.19l0 449.22c0,164.69 -8.63,285.96 -25.44,362.87 -16.79,76.92 -52.79,148.64 -108.46,215.65 -55.2,66.53 -126.23,116.08 -212.63,147.69 -86.88,32.09 -186.71,47.66 -299.02,47.66 -125.75,0 -231.83,-13.21 -319.18,-40.58 -87.35,-27.37 -155.02,-68.42 -203.02,-123.16 -48.48,-54.73 -83.03,-121.27 -103.67,-199.13 -20.64,-77.86 -30.72,-194.41 -30.72,-350.12l0 -470.46c0,-170.34 18.71,-303.41 56.16,-399.2 37.43,-95.79 105.11,-172.71 202.54,-230.75 97.44,-58.04 222.22,-87.29 373.89,-87.29 127.67,0 237.11,18.87 328.3,56.15 91.67,37.28 162.22,85.88 211.67,145.81 49.91,59.93 83.51,121.74 102.23,184.97 18.24,63.7 27.35,160.44 27.35,290.67zm-568.27 -138.25c0,-94.38 -5.28,-153.36 -15.36,-177.9 -10.56,-24.54 -32.64,-36.8 -66.24,-36.8 -33.6,0 -56.16,12.26 -67.19,36.8 -11.53,24.54 -17.28,83.52 -17.28,177.9l0 827.66c0,86.82 5.75,143.44 17.28,169.4 11.03,26.42 33.12,39.63 65.75,39.63 34.08,0 56.15,-12.26 66.71,-35.86 11.05,-24.06 16.33,-75.97 16.33,-154.77l0 -846.06zm1332.87 -506.32l-9.6 168.93c40.8,-67.48 91.19,-117.97 150.71,-151.47 59.99,-33.5 128.63,-50.49 206.38,-50.49 97.44,0 177.11,22.65 239.03,67.95 61.91,44.83 101.75,101.92 119.51,170.34 17.76,68.9 26.4,183.56 26.4,343.52l0 1285.85 -567.8 0 0 -1270.27c0,-126.47 -4.32,-203.38 -12.96,-231.22 -8.16,-27.37 -31.68,-41.52 -70.08,-41.52 -40.31,0 -65.75,16.04 -75.83,48.13 -10.56,31.61 -15.36,116.55 -15.36,254.81l0 1240.07 -568.29 0 0 -1834.63 577.89 0zm1506.14 0l-9.6 168.93c40.79,-67.48 91.18,-117.97 150.71,-151.47 59.99,-33.5 128.63,-50.49 206.38,-50.49 97.43,0 177.11,22.65 239.02,67.95 61.92,44.83 101.76,101.92 119.52,170.34 17.76,68.9 26.39,183.56 26.39,343.52l0 1285.85 -567.79 0 0 -1270.27c0,-126.47 -4.33,-203.38 -12.96,-231.22 -8.16,-27.37 -31.69,-41.52 -70.09,-41.52 -40.31,0 -65.74,16.04 -75.82,48.13 -10.56,31.61 -15.36,116.55 -15.36,254.81l0 1240.07 -568.29 0 0 -1834.63 577.89 0zm2215.04 949.87l-735.79 0 0 396.85c0,83.05 6.25,136.37 18.24,160.43 12.48,23.6 36,35.86 70.56,35.86 43.2,0 71.99,-16.04 86.39,-47.65 14.4,-32.09 22.08,-93.43 22.08,-184.51l0 -242.07 538.52 0 0 135.43c0,113.25 -7.68,200.55 -22.08,261.42 -14.39,60.87 -48.48,125.52 -101.75,194.88 -53.75,68.89 -121.43,120.8 -203.51,155.25 -81.6,34.91 -184.79,51.9 -308.61,51.9 -120,0 -225.59,-16.99 -317.74,-50.96 -91.67,-33.98 -163.19,-80.69 -214.07,-140.15 -51.35,-59.45 -86.87,-125.04 -106.55,-196.29 -19.67,-71.73 -29.28,-175.54 -29.28,-311.91l0 -535.1c0,-160.44 22.09,-286.9 65.76,-379.38 44.16,-92.49 116.63,-163.74 216.94,-212.82 100.31,-49.54 215.51,-74.08 345.58,-74.08 159.35,0 290.86,29.73 394.53,89.18 103.68,59.46 176.15,138.26 217.9,236.41 41.77,98.15 62.88,235.93 62.88,413.83l0 243.48zm-569.72 -298.69l0 -134.01c0,-94.85 -5.28,-156.19 -15.36,-184.03 -10.55,-27.37 -31.67,-41.52 -63.36,-41.52 -39.35,0 -63.83,11.79 -72.95,35.39 -9.6,23.59 -14.4,86.82 -14.4,190.16l0 134.01 166.07 0zm2010.59 41.52l-535.65 0 0 -211.39c0,-73.61 -6.23,-123.63 -18.23,-150.06 -12.49,-26.42 -34.57,-39.63 -67.69,-39.63 -32.63,0 -54.71,11.79 -65.75,34.91 -11.52,23.13 -17.28,74.56 -17.28,154.78l0 865.41c0,65.11 8.65,114.19 25.44,147.22 16.81,32.56 41.76,49.07 74.4,49.07 38.39,0 64.79,-16.98 78.24,-51.43 13.43,-33.97 20.15,-98.62 20.15,-193.47l0 -218.47 506.37 0c-0.97,146.75 -6.25,256.7 -16.33,329.84 -9.59,73.13 -40.8,148.63 -94.06,225.55 -52.8,76.91 -121.92,134.95 -207.35,174.12 -85.43,39.16 -190.55,58.51 -316.3,58.51 -160.31,0 -287.5,-26.9 -381.1,-80.69 -93.58,-53.79 -160.3,-129.29 -199.18,-226.97 -38.88,-97.2 -58.08,-234.99 -58.08,-413.83l0 -520.94c0,-156.19 15.84,-273.69 47.52,-352.96 32.16,-79.28 99.83,-149.58 203.99,-211.87 104.14,-62.29 230.86,-93.43 379.65,-93.43 148.31,0 274.54,30.67 379.66,92.49 105.11,61.81 174.7,139.67 209.73,233.57 34.57,94.37 51.85,227.44 51.85,399.67zm767.94 -937.13l0 288.79 153.1 0 0 290.2 -153.1 0 0 981.48c0,120.8 6.24,188.28 19.2,201.97 12.48,13.68 65.28,20.76 157.91,20.76l0 295.86 -228.94 0c-129.6,0 -221.75,-5.19 -277.42,-16.04 -55.2,-10.38 -103.68,-34.92 -145.91,-73.14 -42.25,-38.22 -68.64,-82.11 -78.72,-131.18 -10.56,-49.55 -15.84,-165.16 -15.84,-347.77l0 -931.94 -121.91 0 0 -290.2 121.91 0 0 -288.79 569.72 0z"/>
   <path class="fil0" d="M21487.32 21842.7l0 291.62 -585.08 0 0 -291.62 585.08 0zm0 403.45l0 1834.63 -585.08 0 0 -1834.63 585.08 0zm1377.98 0l-265.43 1834.63 -741.06 0 -285.58 -1834.63 507.32 0 159.35 1338.22c12.01,-97.67 32.64,-337.38 61.44,-718.66 17.28,-212.81 36,-419.49 56.63,-619.56l507.33 0zm669.55 -403.45l0 291.62 -585.08 0 0 -291.62 585.08 0zm0 403.45l0 1834.63 -585.08 0 0 -1834.63 585.08 0zm802.98 -244.43l0 288.79 153.1 0 0 290.2 -153.1 0 0 981.48c0,120.8 6.24,188.28 19.2,201.97 12.48,13.68 65.28,20.76 157.91,20.76l0 295.86 -228.94 0c-129.6,0 -221.75,-5.19 -277.42,-16.04 -55.2,-10.38 -103.68,-34.92 -145.91,-73.14 -42.25,-38.22 -68.64,-82.11 -78.72,-131.18 -10.56,-49.55 -15.84,-165.16 -15.84,-347.77l0 -931.94 -121.92 0 0 -290.2 121.92 0 0 -288.79 569.72 0zm1525.33 244.43l-162.71 1327.37c-25.43,209.98 -47.04,353.43 -64.32,429.87 -17.27,76.45 -46.07,139.68 -86.38,189.22 -40.33,50.02 -96.48,86.36 -168,109.95 -71.52,23.59 -186.22,35.39 -343.66,35.39l-344.61 0 0 -293.03c88.32,0 144.96,-4.25 169.91,-13.21 25.44,-8.97 38.39,-28.32 38.39,-58.99 0,-14.63 -11.99,-78.8 -35.51,-192.05l-310.54 -1534.52 515.96 0 185.75 1237.24 89.76 -1237.24 515.96 0zm1880.04 273.68l-549.56 0 0 -165.62c0,-77.39 -7.21,-126.94 -21.13,-148.17 -13.92,-21.23 -37.43,-31.61 -70.55,-31.61 -35.52,0 -62.4,14.15 -80.64,42.94 -18.24,28.31 -27.35,71.72 -27.35,129.76 0,74.56 10.08,131.18 30.72,168.93 19.67,37.75 75.82,83.05 167.5,136.84 263.51,153.83 429.09,279.82 497.73,378.44 68.63,98.62 102.71,257.64 102.71,477.06 0,159.49 -19.2,276.99 -57.11,352.49 -37.92,75.5 -111.36,139.2 -219.83,190.16 -108.95,50.96 -235.19,76.92 -379.66,76.92 -158.39,0 -293.73,-29.73 -405.57,-88.71 -112.31,-58.99 -185.74,-134.02 -220.3,-225.09 -34.56,-91.54 -51.84,-220.83 -51.84,-388.82l0 -146.28 549.56 0 0 272.27c0,83.99 7.68,137.79 23.04,161.85 15.84,23.6 43.2,35.87 82.55,35.87 39.37,0 68.64,-15.1 87.84,-45.78 19.2,-30.2 28.8,-75.5 28.8,-135.42 0,-131.65 -18.24,-218.01 -54.72,-258.59 -37.43,-40.58 -130.07,-108.06 -276.93,-202.9 -147.36,-96.26 -244.79,-165.63 -292.79,-209.04 -47.51,-43.41 -87.36,-103.34 -118.55,-179.78 -31.68,-76.45 -47.04,-174.12 -47.04,-293.03 0,-171.29 22.09,-296.81 66.72,-376.08 44.15,-79.28 116.15,-141.09 215.5,-185.92 99.36,-44.36 219.34,-67.01 359.98,-67.01 154.07,0 285.1,24.54 393.09,73.14 108.48,49.08 179.98,110.42 215.5,184.98 35.04,74.08 52.33,200.07 52.33,377.96l0 88.24zm1503.72 370.89l0 449.22c0,164.69 -8.63,285.96 -25.44,362.87 -16.79,76.92 -52.79,148.64 -108.47,215.65 -55.19,66.53 -126.23,116.08 -212.62,147.69 -86.88,32.09 -186.71,47.66 -299.02,47.66 -125.75,0 -231.83,-13.21 -319.18,-40.58 -87.36,-27.37 -155.03,-68.42 -203.03,-123.16 -48.47,-54.73 -83.03,-121.27 -103.67,-199.13 -20.63,-77.86 -30.71,-194.41 -30.71,-350.12l0 -470.46c0,-170.34 18.71,-303.41 56.15,-399.2 37.43,-95.79 105.12,-172.71 202.55,-230.75 97.43,-58.04 222.22,-87.29 373.89,-87.29 127.67,0 237.11,18.87 328.29,56.15 91.68,37.28 162.23,85.88 211.68,145.81 49.91,59.93 83.5,121.74 102.23,184.97 18.24,63.7 27.35,160.44 27.35,290.67zm-568.27 -138.25c0,-94.38 -5.28,-153.36 -15.36,-177.9 -10.56,-24.54 -32.64,-36.8 -66.24,-36.8 -33.6,0 -56.16,12.26 -67.19,36.8 -11.53,24.54 -17.29,83.52 -17.29,177.9l0 827.66c0,86.82 5.76,143.44 17.29,169.4 11.03,26.42 33.11,39.63 65.74,39.63 34.09,0 56.16,-12.26 66.72,-35.86 11.05,-24.06 16.33,-75.97 16.33,-154.77l0 -846.06zm1340.06 -909.77l0 2238.08 -585.08 0 0 -2238.08 585.08 0zm1504.69 403.45l0 1834.63 -577.88 0 9.61 -151.94c-39.37,61.81 -87.84,108.06 -145.44,138.73 -57.59,31.14 -123.83,46.24 -198.7,46.24 -85.44,0 -156.47,-14.63 -212.63,-43.88 -56.15,-29.73 -97.43,-68.9 -124.31,-117.5 -26.88,-49.07 -43.19,-100.04 -49.91,-152.88 -6.73,-53.33 -10.08,-158.55 -10.08,-316.16l0 -1237.24 568.28 0 0 1248.57c0,142.97 4.31,227.44 13.44,254.34 8.63,26.89 33.12,40.1 72.47,40.1 42.23,0 67.19,-13.68 74.87,-41.52 8.16,-27.84 12.01,-116.55 12.01,-266.61l0 -1234.88 568.27 0zm802.99 -244.43l0 288.79 153.1 0 0 290.2 -153.1 0 0 981.48c0,120.8 6.23,188.28 19.19,201.97 12.48,13.68 65.28,20.76 157.92,20.76l0 295.86 -228.95 0c-129.59,0 -221.75,-5.19 -277.42,-16.04 -55.2,-10.38 -103.68,-34.92 -145.91,-73.14 -42.24,-38.22 -68.64,-82.11 -78.72,-131.18 -10.55,-49.55 -15.83,-165.16 -15.83,-347.77l0 -931.94 -121.92 0 0 -290.2 121.92 0 0 -288.79 569.72 0zm863.45 -159.02l0 291.62 -585.08 0 0 -291.62 585.08 0zm0 403.45l0 1834.63 -585.08 0 0 -1834.63 585.08 0zm1489.34 644.57l0 449.22c0,164.69 -8.64,285.96 -25.44,362.87 -16.8,76.92 -52.79,148.64 -108.47,215.65 -55.19,66.53 -126.23,116.08 -212.63,147.69 -86.88,32.09 -186.71,47.66 -299.01,47.66 -125.76,0 -231.83,-13.21 -319.19,-40.58 -87.35,-27.37 -155.02,-68.42 -203.02,-123.16 -48.48,-54.73 -83.03,-121.27 -103.67,-199.13 -20.64,-77.86 -30.72,-194.41 -30.72,-350.12l0 -470.46c0,-170.34 18.72,-303.41 56.16,-399.2 37.43,-95.79 105.11,-172.71 202.54,-230.75 97.44,-58.04 222.22,-87.29 373.89,-87.29 127.67,0 237.11,18.87 328.3,56.15 91.68,37.28 162.23,85.88 211.67,145.81 49.91,59.93 83.51,121.74 102.23,184.97 18.24,63.7 27.36,160.44 27.36,290.67zm-568.28 -138.25c0,-94.38 -5.28,-153.36 -15.36,-177.9 -10.56,-24.54 -32.64,-36.8 -66.24,-36.8 -33.59,0 -56.15,12.26 -67.19,36.8 -11.52,24.54 -17.28,83.52 -17.28,177.9l0 827.66c0,86.82 5.76,143.44 17.28,169.4 11.04,26.42 33.12,39.63 65.75,39.63 34.08,0 56.16,-12.26 66.71,-35.86 11.05,-24.06 16.33,-75.97 16.33,-154.77l0 -846.06zm1332.87 -506.32l-9.6 168.93c40.8,-67.48 91.19,-117.97 150.71,-151.47 60,-33.5 128.63,-50.49 206.39,-50.49 97.43,0 177.1,22.65 239.02,67.95 61.91,44.83 101.75,101.92 119.51,170.34 17.76,68.9 26.4,183.56 26.4,343.52l0 1285.85 -567.8 0 0 -1270.27c0,-126.47 -4.32,-203.38 -12.96,-231.22 -8.16,-27.37 -31.68,-41.52 -70.08,-41.52 -40.31,0 -65.75,16.04 -75.83,48.13 -10.56,31.61 -15.36,116.55 -15.36,254.81l0 1240.07 -568.28 0 0 -1834.63 577.88 0zm2088.33 586.06l-503.48 0 0 -99.09c0,-84.94 -4.8,-138.73 -14.88,-161.38 -9.6,-22.65 -34.08,-33.97 -73.43,-33.97 -32.16,0 -56.16,10.38 -72,31.14 -15.83,20.76 -24,51.9 -24,93.43 0,56.15 4.32,97.68 12,123.63 8.16,26.42 32.16,55.21 72,86.35 39.84,31.62 121.43,77.39 245.26,136.84 165.11,79.28 273.1,154.3 324.93,224.14 51.36,70.31 77.28,171.76 77.28,305.77 0,149.11 -19.67,261.89 -59.04,337.86 -39.35,75.97 -105.59,134.49 -197.74,175.54 -92.15,41.05 -203.51,61.34 -334.06,61.34 -143.99,0 -267.82,-22.18 -370.53,-66.06 -102.71,-44.36 -173.27,-104.28 -211.67,-179.78 -38.4,-75.5 -57.59,-190.17 -57.59,-343.05l0 -88.24 503.48 0 0 116.08c0,98.62 6.25,162.79 19.21,192.05 12.47,29.73 37.43,44.35 74.87,44.35 40.32,0 68.64,-9.9 84.47,-29.72 15.84,-19.82 24,-61.82 24,-125.05 0,-87.77 -10.08,-142.5 -30.72,-164.68 -21.59,-22.18 -131.99,-87.3 -330.7,-196.3 -167.03,-92.01 -268.77,-175.54 -305.26,-251.03 -36.47,-75.03 -54.71,-164.22 -54.71,-267.55 0,-146.28 19.68,-254.34 59.04,-324.18 39.35,-69.36 106.06,-123.16 200.62,-160.91 94.08,-37.75 203.5,-56.62 328.3,-56.62 123.35,0 228.94,15.57 315.34,46.24 86.87,31.15 153.59,71.73 199.66,122.22 46.56,50.96 74.88,97.67 84.48,141.09 10.08,43.41 14.87,111.36 14.87,203.37l0 106.17z"/>
  </g>
  <g id="_1884538102928">
   <path class="fil3" d="M6801.69 24643.85l486.76 0c96.39,0 168.39,3.9 215.74,11.98 47.34,7.8 89.58,24.25 127,49.33 37.43,25.09 68.33,58.25 93.28,100.06 24.94,41.53 37.42,88.35 37.42,139.92 0,56.02 -15.31,107.58 -45.93,154.4 -30.9,46.83 -72.57,81.94 -125.03,105.36 74,21.18 131.27,57.41 170.96,108.42 39.97,51.28 59.82,111.48 59.82,180.6 0,54.35 -12.77,107.31 -38.56,158.87 -25.8,51.28 -60.95,92.53 -105.46,123.19 -44.51,30.66 -99.51,49.61 -164.99,56.86 -40.83,4.18 -139.77,6.97 -296.55,8.08l-414.46 0 0 -1197.07zm246.07 199.28l0 276.76 161.03 0c95.81,0 155.35,-1.39 178.6,-4.18 41.96,-4.74 75.13,-18.95 99.23,-42.65 24.09,-23.69 35.99,-54.9 35.99,-93.64 0,-37.07 -10.2,-67.17 -30.9,-90.31 -20.97,-23.13 -51.87,-37.06 -92.7,-41.8 -24.38,-2.79 -94.41,-4.18 -210.07,-4.18l-141.18 0zm0 476.04l0 319.96 227.37 0c88.72,0 144.86,-2.23 168.67,-7.25 36.57,-6.41 66.34,-22.57 89.31,-47.65 22.96,-25.37 34.58,-59.37 34.58,-101.74 0,-35.95 -9.07,-66.33 -26.65,-91.41 -17.86,-25.09 -43.37,-43.48 -76.82,-54.91 -33.46,-11.43 -106.32,-17 -218.01,-17l-198.45 0zm1203.43 521.75l-233.31 0 0 -867.08 216.59 0 0 123.19c37.14,-58.25 70.59,-96.71 100.07,-115.1 29.77,-18.4 63.23,-27.88 100.93,-27.88 53.29,0 104.32,14.5 153.65,43.48l-72.29 199.84c-39.13,-24.8 -75.69,-37.35 -109.43,-37.35 -32.89,0 -60.38,8.64 -83.06,26.48 -22.97,17.56 -40.55,49.61 -53.59,95.88 -13.04,46.26 -19.56,143.26 -19.56,290.7l0 267.84zm438.58 -984.69l0 -212.38 233.32 0 0 212.38 -233.32 0zm0 984.69l0 -867.08 233.32 0 0 867.08 -233.32 0zm1281.4 0l-216.59 0 0 -127.37c-36,49.61 -78.53,86.4 -127.57,110.65 -49.05,24.25 -98.38,36.23 -148.27,36.23 -101.49,0 -188.25,-40.13 -260.54,-120.4 -72,-80.27 -108.29,-192.32 -108.29,-335.85 0,-147.16 35.15,-258.93 105.46,-335.3 70.31,-76.36 159.32,-114.83 266.77,-114.83 98.38,0 183.71,40.42 255.71,120.97l0 -431.17 233.32 0 0 1197.07zm-622.84 -452.35c0,92.53 13.04,159.42 39.12,200.95 37.42,59.65 90.15,89.75 157.63,89.75 53.86,0 99.51,-22.58 137.21,-67.45 37.42,-44.88 56.41,-112.05 56.41,-201.23 0,-99.5 -18.43,-171.41 -54.71,-215.17 -36.58,-43.76 -83.34,-65.78 -140.61,-65.78 -55.28,0 -101.49,21.74 -138.91,64.94 -37.42,43.2 -56.14,107.87 -56.14,193.99zm831.49 509.49l266.48 31.77c4.54,30.66 14.75,51.56 30.62,62.99 22.11,16.44 57.26,24.53 104.61,24.53 60.95,0 106.6,-8.92 137.22,-27.04 20.4,-11.98 35.99,-31.22 46.49,-57.97 7.08,-18.95 10.77,-54.07 10.77,-105.36l0 -126.53c-69.74,93.65 -157.91,140.47 -264.21,140.47 -118.51,0 -212.35,-49.33 -281.52,-147.72 -54.15,-78.04 -81.37,-174.75 -81.37,-290.7 0,-145.48 35.73,-256.41 106.89,-333.34 71.16,-76.64 159.6,-115.11 265.34,-115.11 108.87,0 199.02,47.11 269.9,141.31l0 -121.52 218.29 0 0 778.17c0,102.29 -8.51,178.66 -25.8,229.38 -17.01,50.73 -41.11,90.3 -72.01,119.29 -31.19,28.71 -72.58,51.28 -124.17,67.73 -51.88,16.16 -117.37,24.52 -196.46,24.52 -149.69,0 -255.71,-25.36 -318.09,-75.53 -62.64,-50.44 -93.83,-114.27 -93.83,-191.47 0,-7.81 0.29,-17 0.85,-27.87zm208.37 -508.66c0,91.98 18.15,159.43 54.43,202.07 36.29,42.64 80.79,64.11 134.09,64.11 56.98,0 105.17,-22.02 144.59,-65.78 39.12,-43.76 58.96,-108.7 58.96,-194.82 0,-89.75 -19,-156.36 -56.69,-199.84 -37.42,-43.76 -85.06,-65.5 -142.61,-65.5 -56.12,0 -102.05,21.46 -138.34,64.11 -36.28,42.92 -54.43,107.86 -54.43,195.65zm852.19 -533.17l0 -212.38 233.31 0 0 212.38 -233.31 0zm0 984.69l0 -867.08 233.31 0 0 867.08 -233.31 0zm1274.87 0l-233.31 0 0 -442.6c0,-93.64 -5.1,-154.13 -15.03,-181.72 -9.92,-27.31 -26.36,-48.77 -48.76,-64.1 -22.4,-15.05 -49.32,-22.86 -80.79,-22.86 -40.55,0 -76.83,10.87 -108.87,32.61 -32.03,22.02 -54.14,50.73 -66.05,86.68 -11.9,35.96 -17.87,102.29 -17.87,199.28l0 392.71 -233.31 0 0 -867.08 216.59 0 0 127.37c77.11,-98.1 174.07,-147.16 290.87,-147.16 51.31,0 98.65,9.2 141.18,27.32 42.53,18.39 74.84,41.53 96.67,69.96 21.83,28.42 37.14,60.48 45.64,96.43 8.79,35.95 13.04,87.24 13.04,154.13l0 539.03zm215.17 57.14l266.49 31.77c4.53,30.66 14.74,51.56 30.61,62.99 22.12,16.44 57.27,24.53 104.62,24.53 60.95,0 106.6,-8.92 137.21,-27.04 20.41,-11.98 36,-31.22 46.5,-57.97 7.08,-18.95 10.77,-54.07 10.77,-105.36l0 -126.53c-69.75,93.65 -157.92,140.47 -264.22,140.47 -118.51,0 -212.34,-49.33 -281.52,-147.72 -54.14,-78.04 -81.36,-174.75 -81.36,-290.7 0,-145.48 35.72,-256.41 106.88,-333.34 71.16,-76.64 159.6,-115.11 265.35,-115.11 108.86,0 199.02,47.11 269.89,141.31l0 -121.52 218.29 0 0 778.17c0,102.29 -8.5,178.66 -25.79,229.38 -17.02,50.73 -41.12,90.3 -72.02,119.29 -31.18,28.71 -72.57,51.28 -124.16,67.73 -51.89,16.16 -117.37,24.52 -196.46,24.52 -149.69,0 -255.72,-25.36 -318.09,-75.53 -62.65,-50.44 -93.83,-114.27 -93.83,-191.47 0,-7.81 0.28,-17 0.84,-27.87zm208.38 -508.66c0,91.98 18.14,159.43 54.42,202.07 36.3,42.64 80.8,64.11 134.1,64.11 56.98,0 105.17,-22.02 144.58,-65.78 39.12,-43.76 58.97,-108.7 58.97,-194.82 0,-89.75 -19,-156.36 -56.7,-199.84 -37.42,-43.76 -85.05,-65.5 -142.6,-65.5 -56.13,0 -102.05,21.46 -138.35,64.11 -36.28,42.92 -54.42,107.86 -54.42,195.65zm2105.51 11.43l238.14 74.14c-36.57,130.72 -97.24,227.71 -182.28,291.25 -84.77,63.27 -192.79,95.05 -323.47,95.05 -161.6,0 -294.56,-54.35 -398.6,-162.77 -104.04,-108.7 -156.21,-257.25 -156.21,-445.39 0,-199.28 52.45,-353.96 157.06,-464.33 104.61,-110.09 242.1,-165.28 412.77,-165.28 148.83,0 269.88,43.2 362.87,129.88 55.57,51.01 96.96,124.59 124.75,220.46l-243.53 57.14c-14.18,-62.15 -44.23,-111.21 -90.15,-147.16 -45.64,-35.96 -101.21,-53.79 -166.41,-53.79 -90.16,0 -163.58,31.77 -219.71,95.6 -56.13,63.54 -84.2,166.67 -84.2,309.37 0,151.34 27.5,259.2 83.07,323.3 55.28,64.39 127.28,96.44 215.74,96.44 65.48,0 121.62,-20.35 168.67,-61.32 47.06,-40.69 80.8,-105.07 101.49,-192.59zm393.49 -5.85c0,-76.09 19.28,-149.95 57.27,-221.3 38.27,-71.07 92.42,-125.7 162.44,-163.05 70.03,-37.62 148.27,-56.58 234.74,-56.58 133.23,0 242.67,42.65 328,127.93 85.33,85.29 127.86,192.87 127.86,323.03 0,131 -43.09,239.7 -128.99,326.1 -86.18,86.4 -194.48,129.32 -325.17,129.32 -81.08,0 -157.91,-17.84 -231.34,-53.79 -73.43,-35.96 -129.27,-88.63 -167.54,-158.03 -37.99,-69.4 -57.27,-153.85 -57.27,-253.63zm239.28 12.26c0,86.12 20.69,151.9 62.36,197.61 41.39,45.71 92.7,68.56 153.65,68.56 60.96,0 111.99,-22.85 153.09,-68.56 41.39,-45.71 62.09,-112.04 62.09,-199.28 0,-84.73 -20.7,-150.23 -62.09,-195.94 -41.1,-45.7 -92.13,-68.56 -153.09,-68.56 -60.95,0 -112.26,22.86 -153.65,68.56 -41.67,45.71 -62.36,111.77 -62.36,197.61zm836.3 -433.4l215.17 0 0 118.18c76.83,-91.98 168.68,-137.97 274.99,-137.97 56.41,0 105.46,11.43 146.85,34.29 41.67,22.85 75.7,57.41 102.35,103.68 38.55,-46.27 80.5,-80.83 125.3,-103.68 44.8,-22.86 92.7,-34.29 143.73,-34.29 64.64,0 119.64,13.1 164.43,39.02 44.79,25.65 78.25,63.83 100.36,113.72 16.15,37.07 24.1,96.99 24.1,179.77l0 554.36 -233.32 0 0 -495.55c0,-86.12 -7.94,-141.59 -24.09,-166.67 -21.56,-32.61 -54.73,-49.06 -99.51,-49.06 -32.89,0 -63.5,9.76 -92.42,29.55 -28.64,19.51 -49.33,48.21 -62.09,86.12 -12.75,37.9 -19.27,97.55 -19.27,179.21l0 416.4 -233.32 0 0 -475.21c0,-84.45 -4.26,-138.8 -12.48,-163.32 -8.22,-24.53 -21.26,-42.65 -38.55,-54.63 -17.58,-11.98 -41.12,-18.12 -71.16,-18.12 -36.01,0 -68.32,9.48 -96.96,28.71 -28.92,18.95 -49.61,46.55 -62.08,82.5 -12.48,35.95 -18.71,95.32 -18.71,178.66l0 421.41 -233.32 0 0 -867.08zm1512.46 0l215.17 0 0 118.18c76.82,-91.98 168.67,-137.97 274.99,-137.97 56.41,0 105.45,11.43 146.84,34.29 41.68,22.85 75.7,57.41 102.35,103.68 38.55,-46.27 80.51,-80.83 125.3,-103.68 44.8,-22.86 92.71,-34.29 143.74,-34.29 64.64,0 119.64,13.1 164.42,39.02 44.8,25.65 78.25,63.83 100.36,113.72 16.16,37.07 24.1,96.99 24.1,179.77l0 554.36 -233.32 0 0 -495.55c0,-86.12 -7.94,-141.59 -24.09,-166.67 -21.56,-32.61 -54.73,-49.06 -99.51,-49.06 -32.89,0 -63.5,9.76 -92.42,29.55 -28.63,19.51 -49.33,48.21 -62.09,86.12 -12.75,37.9 -19.27,97.55 -19.27,179.21l0 416.4 -233.32 0 0 -475.21c0,-84.45 -4.26,-138.8 -12.48,-163.32 -8.22,-24.53 -21.26,-42.65 -38.55,-54.63 -17.58,-11.98 -41.11,-18.12 -71.16,-18.12 -36.01,0 -68.32,9.48 -96.95,28.71 -28.92,18.95 -49.62,46.55 -62.09,82.5 -12.47,35.95 -18.71,95.32 -18.71,178.66l0 421.41 -233.31 0 0 -867.08zm2110.62 867.08l0 -129.88c-32.31,46.27 -74.56,82.78 -126.72,109.53 -52.45,26.48 -107.73,39.86 -165.84,39.86 -59.25,0 -112.27,-12.82 -159.33,-38.18 -47.07,-25.65 -81.08,-61.6 -102.34,-107.87 -20.98,-46.26 -31.47,-110.37 -31.47,-192.03l0 -548.51 233.32 0 0 398.28c0,122.08 4.25,196.78 13.04,224.37 8.5,27.31 24.09,49.05 46.78,65.22 22.68,16.16 51.59,23.97 86.46,23.97 39.97,0 75.69,-10.59 107.16,-32.06 31.47,-21.74 53.02,-48.21 64.64,-79.99 11.62,-32.05 17.58,-110.09 17.58,-234.12l0 -365.67 233.31 0 0 867.08 -216.59 0zm1260.7 0l-233.32 0 0 -442.6c0,-93.64 -5.1,-154.13 -15.02,-181.72 -9.92,-27.31 -26.37,-48.77 -48.77,-64.1 -22.39,-15.05 -49.32,-22.86 -80.79,-22.86 -40.54,0 -76.82,10.87 -108.86,32.61 -32.03,22.02 -54.15,50.73 -66.06,86.68 -11.9,35.96 -17.86,102.29 -17.86,199.28l0 392.71 -233.32 0 0 -867.08 216.6 0 0 127.37c77.11,-98.1 174.06,-147.16 290.86,-147.16 51.32,0 98.66,9.2 141.19,27.32 42.52,18.39 74.84,41.53 96.67,69.96 21.82,28.42 37.13,60.48 45.64,96.43 8.78,35.95 13.04,87.24 13.04,154.13l0 539.03zm236.72 -984.69l0 -212.38 233.32 0 0 212.38 -233.32 0zm0 984.69l0 -867.08 233.32 0 0 867.08 -233.32 0zm876.85 -867.08l0 182.84 -159.33 0 0 349.51c0,70.79 1.43,112.04 4.54,123.74 3.12,11.71 9.93,21.19 20.7,28.99 10.77,7.53 24.1,11.43 39.4,11.43 21.83,0 53.02,-7.53 94.12,-22.02l19.85 177.82c-54.43,22.85 -115.67,34.28 -184.56,34.28 -41.95,0 -79.95,-6.97 -113.67,-20.62 -33.74,-13.94 -58.41,-32.06 -74.29,-54.08 -15.87,-22.01 -26.65,-51.84 -32.88,-89.46 -4.82,-26.48 -7.37,-80.55 -7.37,-161.66l0 -377.93 -107.16 0 0 -182.84 107.16 0 0 -172.52 234.16 -133.78 0 306.3 159.33 0zm162.17 -117.61l0 -212.38 233.31 0 0 212.38 -233.31 0zm0 984.69l0 -867.08 233.31 0 0 867.08 -233.31 0zm983.16 -275.93l232.75 38.19c-30.05,83.89 -77.11,147.72 -141.74,191.47 -64.36,44.04 -145.16,65.78 -242.12,65.78 -153.37,0 -266.77,-49.05 -340.47,-147.72 -58.12,-78.87 -87.31,-178.65 -87.31,-298.78 0,-143.81 38.26,-256.42 114.8,-337.8 76.27,-81.38 172.94,-122.08 289.74,-122.08 131.25,0 234.73,42.65 310.71,127.93 75.7,85.29 111.98,215.73 108.87,391.6l-584.86 0c1.7,68 20.42,120.96 56.41,158.58 36.01,37.91 81.09,56.86 134.67,56.86 36.57,0 67.19,-9.75 92.13,-29.26 24.95,-19.79 43.94,-51.29 56.42,-94.77zm13.33 -231.89c-1.7,-66.61 -19,-117.06 -52.17,-151.62 -33.17,-34.56 -73.71,-51.84 -121.33,-51.84 -51.03,0 -92.99,18.4 -126.16,54.91 -33.17,36.23 -49.62,85.84 -49.05,148.55l348.71 0zm339.91 260.32l234.17 -35.12c9.92,44.6 30.05,78.6 60.66,101.74 30.33,23.13 72.86,34.83 127.86,34.83 60.39,0 105.74,-10.87 136.08,-32.88 20.69,-15.05 30.9,-35.68 30.9,-61.04 0,-17.56 -5.67,-32.05 -16.73,-43.48 -11.62,-10.87 -37.7,-20.9 -77.96,-30.1 -188.24,-40.69 -307.59,-78.04 -358.05,-111.77 -69.75,-46.82 -104.62,-112.04 -104.62,-195.37 0,-74.98 30.06,-138.25 90.44,-189.25 60.39,-51.28 153.94,-76.93 280.66,-76.93 120.77,0 210.64,19.51 269.33,57.98 58.68,38.74 98.94,95.87 121.05,171.68l-220 39.86c-9.35,-33.72 -27.21,-59.64 -53.58,-77.48 -26.36,-18.12 -63.78,-27.04 -112.54,-27.04 -61.52,0 -105.46,8.36 -132.11,25.37 -17.58,11.98 -26.37,27.59 -26.37,46.54 0,16.44 7.65,30.1 23.25,41.53 20.98,15.33 93.55,36.79 218,64.66 124.18,27.59 210.93,61.6 260.25,102.01 48.77,40.97 73.15,97.83 73.15,170.57 0,79.44 -33.74,148 -101.5,205.13 -67.46,57.14 -167.26,85.57 -299.65,85.57 -120.2,0 -215.17,-23.97 -285.48,-71.91 -70.03,-47.66 -115.67,-112.88 -137.21,-195.1zm1905.1 -619.58l0 182.84 -159.33 0 0 349.51c0,70.79 1.42,112.04 4.53,123.74 3.13,11.71 9.93,21.19 20.7,28.99 10.78,7.53 24.1,11.43 39.41,11.43 21.83,0 53.01,-7.53 94.12,-22.02l19.84 177.82c-54.43,22.85 -115.66,34.28 -184.55,34.28 -41.96,0 -79.95,-6.97 -113.68,-20.62 -33.74,-13.94 -58.4,-32.06 -74.28,-54.08 -15.87,-22.01 -26.65,-51.84 -32.89,-89.46 -4.82,-26.48 -7.36,-80.55 -7.36,-161.66l0 -377.93 -107.17 0 0 -182.84 107.17 0 0 -172.52 234.16 -133.78 0 306.3 159.33 0zm394.62 -329.99l0 440.08c75.41,-86.4 165.28,-129.88 269.9,-129.88 53.85,0 102.05,10.04 145.43,29.55 43.09,19.51 75.69,44.59 97.51,74.97 21.83,30.66 36.87,64.38 44.8,101.45 8.22,36.79 12.18,94.49 12.18,172.25l0 508.65 -233.31 0 0 -458.2c0,-90.87 -4.54,-148.56 -13.33,-173.09 -9.07,-24.52 -24.65,-43.75 -47.05,-58.25 -22.4,-14.49 -50.46,-21.74 -84.2,-21.74 -38.83,0 -73.43,9.2 -103.76,27.87 -30.62,18.4 -53.01,46.27 -66.91,83.62 -14.17,37.35 -21.26,92.53 -21.26,165.28l0 434.51 -233.31 0 0 -1197.07 233.31 0zm1029.94 1197.07l-233.32 0 0 -867.08 216.59 0 0 123.19c37.14,-58.25 70.59,-96.71 100.07,-115.1 29.77,-18.4 63.23,-27.88 100.93,-27.88 53.29,0 104.32,14.5 153.66,43.48l-72.29 199.84c-39.13,-24.8 -75.7,-37.35 -109.44,-37.35 -32.88,0 -60.38,8.64 -83.06,26.48 -22.97,17.56 -40.54,49.61 -53.58,95.88 -13.04,46.26 -19.56,143.26 -19.56,290.7l0 267.84zm384.42 -445.94c0,-76.09 19.28,-149.95 57.27,-221.3 38.27,-71.07 92.42,-125.7 162.44,-163.05 70.03,-37.62 148.27,-56.58 234.74,-56.58 133.23,0 242.67,42.65 328,127.93 85.33,85.29 127.86,192.87 127.86,323.03 0,131 -43.09,239.7 -128.99,326.1 -86.18,86.4 -194.48,129.32 -325.17,129.32 -81.08,0 -157.91,-17.84 -231.34,-53.79 -73.43,-35.96 -129.27,-88.63 -167.54,-158.03 -37.99,-69.4 -57.27,-153.85 -57.27,-253.63zm239.28 12.26c0,86.12 20.69,151.9 62.36,197.61 41.39,45.71 92.7,68.56 153.65,68.56 60.96,0 111.99,-22.85 153.09,-68.56 41.39,-45.71 62.09,-112.04 62.09,-199.28 0,-84.73 -20.7,-150.23 -62.09,-195.94 -41.1,-45.7 -92.13,-68.56 -153.09,-68.56 -60.95,0 -112.26,22.86 -153.65,68.56 -41.67,45.71 -62.36,111.77 -62.36,197.61zm1434.47 433.68l0 -129.88c-32.31,46.27 -74.55,82.78 -126.71,109.53 -52.46,26.48 -107.74,39.86 -165.85,39.86 -59.25,0 -112.26,-12.82 -159.33,-38.18 -47.06,-25.65 -81.08,-61.6 -102.33,-107.87 -20.99,-46.26 -31.48,-110.37 -31.48,-192.03l0 -548.51 233.32 0 0 398.28c0,122.08 4.25,196.78 13.04,224.37 8.5,27.31 24.1,49.05 46.78,65.22 22.68,16.16 51.59,23.97 86.47,23.97 39.96,0 75.68,-10.59 107.16,-32.06 31.47,-21.74 53.01,-48.21 64.64,-79.99 11.61,-32.05 17.57,-110.09 17.57,-234.12l0 -365.67 233.32 0 0 867.08 -216.6 0zm436.86 57.14l266.49 31.77c4.54,30.66 14.75,51.56 30.62,62.99 22.11,16.44 57.26,24.53 104.61,24.53 60.95,0 106.6,-8.92 137.21,-27.04 20.41,-11.98 36,-31.22 46.5,-57.97 7.08,-18.95 10.77,-54.07 10.77,-105.36l0 -126.53c-69.75,93.65 -157.91,140.47 -264.22,140.47 -118.51,0 -212.34,-49.33 -281.51,-147.72 -54.15,-78.04 -81.37,-174.75 -81.37,-290.7 0,-145.48 35.73,-256.41 106.89,-333.34 71.16,-76.64 159.6,-115.11 265.34,-115.11 108.87,0 199.02,47.11 269.89,141.31l0 -121.52 218.3 0 0 778.17c0,102.29 -8.51,178.66 -25.8,229.38 -17.02,50.73 -41.11,90.3 -72.01,119.29 -31.19,28.71 -72.58,51.28 -124.17,67.73 -51.88,16.16 -117.37,24.52 -196.46,24.52 -149.69,0 -255.72,-25.36 -318.09,-75.53 -62.64,-50.44 -93.83,-114.27 -93.83,-191.47 0,-7.81 0.28,-17 0.84,-27.87zm208.38 -508.66c0,91.98 18.15,159.43 54.43,202.07 36.29,42.64 80.79,64.11 134.09,64.11 56.98,0 105.17,-22.02 144.59,-65.78 39.12,-43.76 58.96,-108.7 58.96,-194.82 0,-89.75 -19,-156.36 -56.69,-199.84 -37.42,-43.76 -85.06,-65.5 -142.61,-65.5 -56.13,0 -102.05,21.46 -138.34,64.11 -36.28,42.92 -54.43,107.86 -54.43,195.65zm1084.65 -745.55l0 440.08c75.41,-86.4 165.27,-129.88 269.89,-129.88 53.86,0 102.05,10.04 145.43,29.55 43.09,19.51 75.69,44.59 97.52,74.97 21.82,30.66 36.86,64.38 44.79,101.45 8.22,36.79 12.19,94.49 12.19,172.25l0 508.65 -233.32 0 0 -458.2c0,-90.87 -4.53,-148.56 -13.32,-173.09 -9.08,-24.52 -24.66,-43.75 -47.06,-58.25 -22.39,-14.49 -50.46,-21.74 -84.2,-21.74 -38.83,0 -73.43,9.2 -103.76,27.87 -30.61,18.4 -53.01,46.27 -66.91,83.62 -14.16,37.35 -21.25,92.53 -21.25,165.28l0 434.51 -233.32 0 0 -1197.07 233.32 0zm1554.68 1197.07l0 -994.45 -361.17 0 0 -202.62 967.57 0 0 202.62 -360.32 0 0 994.45 -246.08 0zm1147.87 -275.93l232.75 38.19c-30.05,83.89 -77.11,147.72 -141.74,191.47 -64.36,44.04 -145.16,65.78 -242.12,65.78 -153.36,0 -266.77,-49.05 -340.47,-147.72 -58.12,-78.87 -87.31,-178.65 -87.31,-298.78 0,-143.81 38.26,-256.42 114.81,-337.8 76.26,-81.38 172.93,-122.08 289.73,-122.08 131.26,0 234.73,42.65 310.71,127.93 75.7,85.29 111.98,215.73 108.87,391.6l-584.86 0c1.7,68 20.42,120.96 56.42,158.58 36,37.91 81.08,56.86 134.66,56.86 36.57,0 67.19,-9.75 92.13,-29.26 24.95,-19.79 43.94,-51.29 56.42,-94.77zm13.33 -231.89c-1.7,-66.61 -19,-117.06 -52.17,-151.62 -33.17,-34.56 -73.7,-51.84 -121.33,-51.84 -51.03,0 -92.99,18.4 -126.16,54.91 -33.17,36.23 -49.61,85.84 -49.04,148.55l348.7 0zm1191.24 -102.84l-230.19 40.69c-7.66,-45.15 -25.24,-79.15 -52.73,-102.01 -27.5,-22.85 -62.94,-34.28 -106.6,-34.28 -58.39,0 -104.6,19.79 -139.2,59.09 -34.58,39.57 -51.87,105.63 -51.87,198.16 0,102.85 17.58,175.59 52.73,217.96 35.15,42.36 82.22,63.54 141.47,63.54 44.51,0 80.5,-12.26 108.85,-37.07 28.36,-24.8 48.2,-67.44 59.82,-127.65l229.35 38.19c-23.81,103.4 -69.74,181.72 -137.22,234.4 -67.46,52.95 -157.9,79.15 -271.58,79.15 -128.99,0 -231.9,-39.86 -308.44,-119.85 -76.83,-79.99 -115.1,-190.92 -115.1,-332.5 0,-142.98 38.55,-254.47 115.39,-334.18 77.11,-79.99 181.14,-119.85 312.41,-119.85 107.44,0 192.77,22.86 256.27,68.29 63.22,45.43 108.86,114.83 136.64,207.92zm409.38 -586.41l0 440.08c75.41,-86.4 165.28,-129.88 269.89,-129.88 53.86,0 102.05,10.04 145.43,29.55 43.09,19.51 75.69,44.59 97.52,74.97 21.83,30.66 36.86,64.38 44.8,101.45 8.21,36.79 12.18,94.49 12.18,172.25l0 508.65 -233.31 0 0 -458.2c0,-90.87 -4.54,-148.56 -13.33,-173.09 -9.07,-24.52 -24.66,-43.75 -47.05,-58.25 -22.4,-14.49 -50.46,-21.74 -84.2,-21.74 -38.84,0 -73.43,9.2 -103.76,27.87 -30.62,18.4 -53.02,46.27 -66.91,83.62 -14.17,37.35 -21.26,92.53 -21.26,165.28l0 434.51 -233.32 0 0 -1197.07 233.32 0zm1608.83 1197.07l-233.32 0 0 -442.6c0,-93.64 -5.09,-154.13 -15.02,-181.72 -9.92,-27.31 -26.37,-48.77 -48.76,-64.1 -22.4,-15.05 -49.33,-22.86 -80.8,-22.86 -40.54,0 -76.82,10.87 -108.86,32.61 -32.03,22.02 -54.15,50.73 -66.06,86.68 -11.9,35.96 -17.86,102.29 -17.86,199.28l0 392.71 -233.31 0 0 -867.08 216.59 0 0 127.37c77.11,-98.1 174.07,-147.16 290.87,-147.16 51.31,0 98.65,9.2 141.18,27.32 42.52,18.39 74.84,41.53 96.67,69.96 21.83,28.42 37.13,60.48 45.64,96.43 8.79,35.95 13.04,87.24 13.04,154.13l0 539.03zm182.57 -445.94c0,-76.09 19.27,-149.95 57.26,-221.3 38.28,-71.07 92.42,-125.7 162.44,-163.05 70.03,-37.62 148.27,-56.58 234.74,-56.58 133.24,0 242.68,42.65 328.01,127.93 85.33,85.29 127.85,192.87 127.85,323.03 0,131 -43.08,239.7 -128.98,326.1 -86.19,86.4 -194.48,129.32 -325.18,129.32 -81.08,0 -157.9,-17.84 -231.33,-53.79 -73.43,-35.96 -129.27,-88.63 -167.55,-158.03 -37.99,-69.4 -57.26,-153.85 -57.26,-253.63zm239.27 12.26c0,86.12 20.69,151.9 62.37,197.61 41.38,45.71 92.7,68.56 153.65,68.56 60.96,0 111.99,-22.85 153.09,-68.56 41.39,-45.71 62.09,-112.04 62.09,-199.28 0,-84.73 -20.7,-150.23 -62.09,-195.94 -41.1,-45.7 -92.13,-68.56 -153.09,-68.56 -60.95,0 -112.27,22.86 -153.65,68.56 -41.68,45.71 -62.37,111.77 -62.37,197.61zm853.89 433.68l0 -1197.07 233.31 0 0 1197.07 -233.31 0zm418.44 -445.94c0,-76.09 19.27,-149.95 57.26,-221.3 38.28,-71.07 92.42,-125.7 162.44,-163.05 70.03,-37.62 148.27,-56.58 234.74,-56.58 133.24,0 242.68,42.65 328,127.93 85.33,85.29 127.86,192.87 127.86,323.03 0,131 -43.09,239.7 -128.98,326.1 -86.19,86.4 -194.49,129.32 -325.18,129.32 -81.08,0 -157.9,-17.84 -231.33,-53.79 -73.43,-35.96 -129.27,-88.63 -167.55,-158.03 -37.99,-69.4 -57.26,-153.85 -57.26,-253.63zm239.27 12.26c0,86.12 20.69,151.9 62.36,197.61 41.39,45.71 92.71,68.56 153.66,68.56 60.95,0 111.98,-22.85 153.09,-68.56 41.39,-45.71 62.09,-112.04 62.09,-199.28 0,-84.73 -20.7,-150.23 -62.09,-195.94 -41.11,-45.7 -92.14,-68.56 -153.09,-68.56 -60.95,0 -112.27,22.86 -153.66,68.56 -41.67,45.71 -62.36,111.77 -62.36,197.61zm832.33 490.82l266.49 31.77c4.53,30.66 14.75,51.56 30.61,62.99 22.12,16.44 57.27,24.53 104.62,24.53 60.95,0 106.6,-8.92 137.21,-27.04 20.41,-11.98 36,-31.22 46.5,-57.97 7.08,-18.95 10.77,-54.07 10.77,-105.36l0 -126.53c-69.75,93.65 -157.91,140.47 -264.22,140.47 -118.51,0 -212.34,-49.33 -281.52,-147.72 -54.14,-78.04 -81.36,-174.75 -81.36,-290.7 0,-145.48 35.72,-256.41 106.88,-333.34 71.16,-76.64 159.61,-115.11 265.35,-115.11 108.87,0 199.02,47.11 269.89,141.31l0 -121.52 218.29 0 0 778.17c0,102.29 -8.5,178.66 -25.79,229.38 -17.02,50.73 -41.11,90.3 -72.02,119.29 -31.18,28.71 -72.57,51.28 -124.16,67.73 -51.88,16.16 -117.37,24.52 -196.46,24.52 -149.69,0 -255.72,-25.36 -318.09,-75.53 -62.65,-50.44 -93.83,-114.27 -93.83,-191.47 0,-7.81 0.28,-17 0.84,-27.87zm208.38 -508.66c0,91.98 18.14,159.43 54.43,202.07 36.29,42.64 80.79,64.11 134.09,64.11 56.98,0 105.17,-22.02 144.59,-65.78 39.12,-43.76 58.96,-108.7 58.96,-194.82 0,-89.75 -19,-156.36 -56.7,-199.84 -37.42,-43.76 -85.05,-65.5 -142.6,-65.5 -56.13,0 -102.05,21.46 -138.34,64.11 -36.29,42.92 -54.43,107.86 -54.43,195.65zm741.62 -415.56l248.34 0 210.91 615.68 206.11 -615.68 241.54 0 -311.29 834.47 -55.84 151.06c-20.41,50.45 -39.97,89.19 -58.4,115.95 -18.71,26.75 -39.98,48.22 -64.07,64.94 -24.1,16.44 -53.58,29.54 -88.73,38.74 -35.15,9.2 -74.84,13.93 -119.35,13.93 -44.8,0 -88.74,-4.73 -132.11,-13.93l-20.7 -179.77c36.58,7.25 69.46,10.59 98.94,10.59 54.15,0 94.4,-15.61 120.49,-46.82 25.8,-31.22 45.92,-71.08 59.81,-119.57l-335.65 -869.59z"/>
   <path class="fil3" d="M42471.64 25238.34l-211.76 -37.62c23.81,-83.9 64.63,-145.77 122.75,-186.19 58.4,-40.13 144.58,-60.48 259.11,-60.48 104.33,0 181.73,12.27 232.76,36.52 50.74,24.24 86.74,54.9 107.44,92.25 20.69,37.35 31.19,105.63 31.19,205.41l-2.56 267.84c0,76.09 3.69,132.39 11.35,168.63 7.36,35.95 21.54,74.97 41.95,116.22l-231.05 0c-5.95,-15.33 -13.6,-37.91 -22.39,-67.73 -3.69,-13.65 -6.52,-22.57 -8.23,-27.03 -39.96,38.18 -82.49,66.61 -127.86,85.84 -45.35,18.95 -93.83,28.43 -145.43,28.43 -90.71,0 -162.44,-24.25 -214.6,-72.47 -52.45,-48.49 -78.54,-109.81 -78.54,-183.95 0,-48.77 11.92,-92.53 35.73,-130.99 23.81,-38.46 57.26,-67.73 100.08,-88.08 42.8,-20.34 104.88,-38.18 185.69,-53.51 108.85,-20.07 184.55,-39.02 226.51,-56.3l0 -22.85c0,-44.32 -11.06,-75.53 -33.17,-94.49 -22.11,-18.67 -63.79,-28.15 -125.3,-28.15 -41.68,0 -74,8.09 -97.24,24.25 -23.26,15.89 -41.96,44.04 -56.43,84.45zm312.14 186.18c-29.77,9.76 -77.11,21.46 -142.04,35.12 -64.63,13.66 -106.87,27.04 -127,39.86 -30.33,21.46 -45.64,48.21 -45.64,80.82 0,32.33 12.19,59.93 36.57,83.34 24.38,23.41 55.28,35.12 92.99,35.12 42.24,0 82.2,-13.66 120.48,-40.7 28.35,-20.62 46.78,-45.98 55.57,-76.08 6.23,-19.51 9.07,-56.86 9.07,-111.77l0 -45.71zm1261.83 416.4l-233.31 0 0 -442.6c0,-93.64 -5.1,-154.13 -15.03,-181.72 -9.91,-27.31 -26.36,-48.77 -48.76,-64.1 -22.4,-15.05 -49.32,-22.86 -80.79,-22.86 -40.54,0 -76.83,10.87 -108.87,32.61 -32.03,22.02 -54.14,50.73 -66.05,86.68 -11.9,35.96 -17.86,102.29 -17.86,199.28l0 392.71 -233.32 0 0 -867.08 216.6 0 0 127.37c77.11,-98.1 174.06,-147.16 290.86,-147.16 51.32,0 98.66,9.2 141.18,27.32 42.53,18.39 74.85,41.53 96.67,69.96 21.83,28.42 37.14,60.48 45.64,96.43 8.79,35.95 13.04,87.24 13.04,154.13l0 539.03zm1045.53 0l-216.58 0 0 -127.37c-36.01,49.61 -78.54,86.4 -127.57,110.65 -49.05,24.25 -98.38,36.23 -148.28,36.23 -101.49,0 -188.24,-40.13 -260.53,-120.4 -72.01,-80.27 -108.3,-192.32 -108.3,-335.85 0,-147.16 35.16,-258.93 105.46,-335.3 70.32,-76.36 159.33,-114.83 266.77,-114.83 98.38,0 183.71,40.42 255.71,120.97l0 -431.17 233.32 0 0 1197.07zm-622.84 -452.35c0,92.53 13.04,159.42 39.12,200.95 37.43,59.65 90.15,89.75 157.63,89.75 53.86,0 99.51,-22.58 137.22,-67.45 37.42,-44.88 56.41,-112.05 56.41,-201.23 0,-99.5 -18.43,-171.41 -54.71,-215.17 -36.58,-43.76 -83.35,-65.78 -140.62,-65.78 -55.28,0 -101.49,21.74 -138.91,64.94 -37.42,43.2 -56.14,107.87 -56.14,193.99zm1264.96 62.99l239.27 -23.14c14.18,79.16 43.38,137.13 87.61,174.2 43.94,36.79 103.19,55.46 178.03,55.46 79.09,0 138.91,-16.44 178.89,-49.61 40.25,-32.89 60.38,-71.35 60.38,-115.38 0,-28.43 -8.51,-52.4 -25.51,-72.19 -16.73,-20.07 -46.21,-37.35 -88.46,-51.84 -28.63,-10.04 -94.4,-27.32 -196.75,-52.4 -131.82,-32.05 -224.24,-71.63 -277.25,-118.45 -74.85,-65.78 -112.27,-146.05 -112.27,-240.81 0,-61.04 17.58,-117.9 52.73,-171.13 35.16,-52.96 85.9,-93.37 151.96,-121.24 66.34,-27.59 146,-41.53 239.56,-41.53 153.08,0 267.9,32.89 345.29,98.66 77.11,66.06 117.65,153.85 121.62,263.95l-245.79 10.59c-10.49,-61.6 -33.17,-105.91 -67.76,-132.67 -34.58,-27.04 -86.46,-40.41 -155.63,-40.41 -71.45,0 -127.58,14.21 -167.83,43.2 -26.08,18.39 -39.13,43.2 -39.13,74.13 0,28.43 12.19,52.68 36.57,72.75 30.91,25.64 106.32,52.4 225.95,79.99 119.63,27.87 208.09,56.58 265.35,86.12 57.27,29.82 102.06,70.24 134.66,121.8 32.32,51.56 48.48,115.11 48.48,190.64 0,68.56 -19.27,132.95 -58.12,192.59 -38.83,59.92 -93.55,104.52 -164.42,133.5 -70.88,29.27 -159.33,43.76 -265.07,43.76 -153.94,0 -272.15,-34.84 -354.66,-104.79 -82.5,-69.96 -131.82,-171.97 -147.7,-305.75zm1705.8 113.43l232.74 38.19c-30.04,83.89 -77.11,147.72 -141.74,191.47 -64.35,44.04 -145.16,65.78 -242.11,65.78 -153.37,0 -266.77,-49.05 -340.48,-147.72 -58.12,-78.87 -87.31,-178.65 -87.31,-298.78 0,-143.81 38.27,-256.42 114.81,-337.8 76.26,-81.38 172.94,-122.08 289.74,-122.08 131.25,0 234.73,42.65 310.71,127.93 75.69,85.29 111.98,215.73 108.86,391.6l-584.85 0c1.7,68 20.41,120.96 56.41,158.58 36.01,37.91 81.09,56.86 134.66,56.86 36.58,0 67.19,-9.75 92.13,-29.26 24.96,-19.79 43.95,-51.29 56.43,-94.77zm13.32 -231.89c-1.7,-66.61 -19,-117.06 -52.17,-151.62 -33.17,-34.56 -73.7,-51.84 -121.33,-51.84 -51.03,0 -92.98,18.4 -126.15,54.91 -33.17,36.23 -49.62,85.84 -49.05,148.55l348.7 0zm645.52 507.82l-233.32 0 0 -867.08 216.6 0 0 123.19c37.13,-58.25 70.59,-96.71 100.07,-115.1 29.77,-18.4 63.22,-27.88 100.93,-27.88 53.29,0 104.32,14.5 153.65,43.48l-72.29 199.84c-39.13,-24.8 -75.7,-37.35 -109.43,-37.35 -32.89,0 -60.38,8.64 -83.07,26.48 -22.96,17.56 -40.54,49.61 -53.58,95.88 -13.04,46.26 -19.56,143.26 -19.56,290.7l0 267.84zm680.97 0l-355.51 -867.08 244.94 0 166.12 442.6 48.2 147.72c12.76,-37.63 20.98,-62.43 24.1,-74.42 7.94,-24.53 16.16,-49.05 24.94,-73.3l167.84 -442.6 240.12 0 -350.69 867.08 -210.06 0zm703.64 -984.69l0 -212.38 233.31 0 0 212.38 -233.31 0zm0 984.69l0 -867.08 233.31 0 0 867.08 -233.31 0zm1241.7 -610.66l-230.19 40.69c-7.66,-45.15 -25.24,-79.15 -52.73,-102.01 -27.5,-22.85 -62.94,-34.28 -106.6,-34.28 -58.39,0 -104.6,19.79 -139.2,59.09 -34.58,39.57 -51.87,105.63 -51.87,198.16 0,102.85 17.58,175.59 52.73,217.96 35.15,42.36 82.22,63.54 141.46,63.54 44.52,0 80.51,-12.26 108.86,-37.07 28.36,-24.8 48.2,-67.44 59.82,-127.65l229.35 38.19c-23.81,103.4 -69.74,181.72 -137.22,234.4 -67.46,52.95 -157.9,79.15 -271.58,79.15 -128.99,0 -231.9,-39.86 -308.44,-119.85 -76.83,-79.99 -115.1,-190.92 -115.1,-332.5 0,-142.98 38.55,-254.47 115.38,-334.18 77.12,-79.99 181.15,-119.85 312.41,-119.85 107.45,0 192.78,22.86 256.28,68.29 63.22,45.43 108.86,114.83 136.64,207.92zm687.49 334.73l232.75 38.19c-30.05,83.89 -77.12,147.72 -141.75,191.47 -64.35,44.04 -145.15,65.78 -242.11,65.78 -153.37,0 -266.77,-49.05 -340.47,-147.72 -58.12,-78.87 -87.32,-178.65 -87.32,-298.78 0,-143.81 38.27,-256.42 114.81,-337.8 76.27,-81.38 172.94,-122.08 289.74,-122.08 131.25,0 234.73,42.65 310.71,127.93 75.7,85.29 111.98,215.73 108.87,391.6l-584.86 0c1.7,68 20.41,120.96 56.41,158.58 36.01,37.91 81.09,56.86 134.66,56.86 36.58,0 67.2,-9.75 92.14,-29.26 24.95,-19.79 43.94,-51.29 56.42,-94.77zm13.32 -231.89c-1.69,-66.61 -19,-117.06 -52.17,-151.62 -33.17,-34.56 -73.7,-51.84 -121.32,-51.84 -51.03,0 -92.99,18.4 -126.16,54.91 -33.17,36.23 -49.62,85.84 -49.05,148.55l348.7 0zm339.92 260.32l234.17 -35.12c9.92,44.6 30.05,78.6 60.66,101.74 30.33,23.13 72.86,34.83 127.86,34.83 60.39,0 105.74,-10.87 136.07,-32.88 20.7,-15.05 30.9,-35.68 30.9,-61.04 0,-17.56 -5.66,-32.05 -16.72,-43.48 -11.62,-10.87 -37.7,-20.9 -77.96,-30.1 -188.24,-40.69 -307.59,-78.04 -358.05,-111.77 -69.75,-46.82 -104.62,-112.04 -104.62,-195.37 0,-74.98 30.06,-138.25 90.44,-189.25 60.39,-51.28 153.94,-76.93 280.66,-76.93 120.77,0 210.64,19.51 269.33,57.98 58.68,38.74 98.94,95.87 121.05,171.68l-220 39.86c-9.35,-33.72 -27.21,-59.64 -53.58,-77.48 -26.36,-18.12 -63.78,-27.04 -112.55,-27.04 -61.51,0 -105.45,8.36 -132.1,25.37 -17.58,11.98 -26.37,27.59 -26.37,46.54 0,16.44 7.65,30.1 23.24,41.53 20.99,15.33 93.56,36.79 218.01,64.66 124.18,27.59 210.93,61.6 260.25,102.01 48.76,40.97 73.15,97.83 73.15,170.57 0,79.44 -33.74,148 -101.5,205.13 -67.47,57.14 -167.26,85.57 -299.65,85.57 -120.2,0 -215.17,-23.97 -285.48,-71.91 -70.03,-47.66 -115.67,-112.88 -137.21,-195.1z"/>
  </g>
 </g>
</svg>
