<?xml version="1.0" encoding="utf-8"?>
<!-- Generator: Adobe Illustrator 22.1.0, SVG Export Plug-In . SVG Version: 6.00 Build 0)  -->
<svg version="1.1" id="Capa_1" xmlns="http://www.w3.org/2000/svg" xmlns:xlink="http://www.w3.org/1999/xlink" x="0px" y="0px"
	 viewBox="0 0 50 50" style="enable-background:new 0 0 50 50;" xml:space="preserve">
<style type="text/css">
	.st0{fill:#00A859;}
	.st1{fill:#FFFFFF;stroke:#FFFFFF;stroke-width:0.5;stroke-miterlimit:10;}
</style>
<rect class="st0" width="50" height="50"/>
<path class="st1" d="M38.7,20H37v-3c0-0.7-0.6-1.4-1.4-1.4H23.5L21,12.2h-9.2c-0.7,0-1.4,0.6-1.4,1.4V35l0,0c0,0.2,0.1,0.6,0.2,0.8
	c0.2,0.3,0.6,0.5,1,0.5h21.9c0.6,0,1-0.4,1.2-0.9l5-13.8v-0.1C39.9,20.7,39.4,20,38.7,20z M11.5,13.6c0-0.2,0.2-0.3,0.3-0.3h8.7
	l2.5,3.4h12.6c0.2,0,0.3,0.2,0.3,0.3v3H16.7c-0.1,0-0.2,0-0.2,0c-0.5,0.1-0.9,0.4-1,0.9l-4,11.1V13.6z M34,35.1
	c0,0.2-0.2,0.2-0.2,0.2h-22c-0.1,0-0.2-0.1-0.2-0.1c0-0.1-0.1-0.2-0.1-0.2l5-13.7c0-0.2,0.2-0.2,0.2-0.2h20.2h1.7
	c0.2,0,0.2,0.2,0.2,0.4L34,35.1z"/>
</svg>
