<?xml version="1.0" encoding="utf-8"?>
<!-- Generator: Adobe Illustrator 22.1.0, SVG Export Plug-In . SVG Version: 6.00 Build 0)  -->
<svg version="1.1" id="Capa_1" xmlns="http://www.w3.org/2000/svg" xmlns:xlink="http://www.w3.org/1999/xlink" x="0px" y="0px"
	 viewBox="0 0 50 50" style="enable-background:new 0 0 50 50;" xml:space="preserve">
<style type="text/css">
	.st0{fill:#00A859;}
	.st1{fill:#FFFFFF;}
</style>
<rect class="st0" width="50" height="50"/>
<g>
	<path class="st1" d="M30.9,28.8c-0.2,0-0.5,0.2-0.5,0.5v2.2H18.7V16.7h11.8v2.2c0,0.2,0.2,0.5,0.5,0.5s0.5-0.2,0.5-0.5v-5.2
		c0-0.2-0.2-0.5-0.5-0.5H18.2c-0.2,0-0.5,0.2-0.5,0.5v22.6c0,0.2,0.2,0.5,0.5,0.5h12.7c0.2,0,0.5-0.2,0.5-0.5v-7
		C31.4,29.1,31.2,28.8,30.9,28.8z M30.5,14.1v1.5H18.7v-1.5H30.5z M18.7,35.8v-3.4h11.8v3.4H18.7z"/>
	<ellipse class="st1" cx="24.5" cy="34.1" rx="0.7" ry="0.7"/>
	<path class="st1" d="M26.9,25.2c-0.1-0.2-0.4-0.4-0.6-0.3L26,25c-0.1-0.1-0.1-0.2-0.2-0.2l0.2-0.2c0.2-0.2,0.2-0.5-0.1-0.6
		c-0.2-0.2-0.5-0.2-0.6,0.1l-0.2,0.2c-0.1,0-0.2-0.1-0.2-0.1l0.1-0.3c0.1-0.2-0.2-0.5-0.4-0.6c-0.2-0.1-0.5,0.2-0.6,0.4L23.9,24
		c-0.1,0-0.2,0-0.2,0l-0.1-0.3c-0.1-0.2-0.4-0.4-0.6-0.3c-0.2,0.1-0.4,0.4-0.3,0.6l0.1,0.3c-0.1,0.1-0.2,0.1-0.2,0.2l-0.2-0.2
		C22,24,21.8,24,21.6,24.3s-0.2,0.5,0.1,0.6l0.2,0.2c0,0.1-0.1,0.2-0.1,0.2l-0.3-0.1c-0.2-0.1-0.5,0.2-0.6,0.4l0,0l0,0
		c-0.1,0.2,0.2,0.5,0.4,0.6l0.3,0.1c0,0.1,0,0.2,0,0.2l-0.3,0.1c-0.2,0.1-0.4,0.4-0.3,0.6c0.1,0.2,0.4,0.4,0.6,0.3l0.3-0.1
		c0.1,0.1,0.1,0.2,0.2,0.2L22,28c-0.2,0.2-0.2,0.5,0.1,0.6c0.2,0.2,0.5,0.2,0.6-0.1l0.2-0.2c0.1,0,0.2,0.1,0.2,0.1l-0.1,0.3
		c-0.1,0.2,0.2,0.5,0.4,0.6s0.5-0.2,0.6-0.4l0.1-0.3c0.1,0,0.2,0,0.2,0l0.1,0.3c0.1,0.2,0.4,0.4,0.6,0.3s0.4-0.4,0.3-0.6l-0.2-0.3
		c0.1-0.1,0.2-0.1,0.2-0.2l0.2,0.2c0.2,0.2,0.5,0.2,0.6-0.1s0.2-0.5-0.1-0.6l-0.2-0.2c0-0.1,0.1-0.2,0.1-0.2l0.3,0.1
		c0.2,0.1,0.5-0.2,0.6-0.4l0,0l0,0c0.1-0.2-0.2-0.5-0.4-0.6l-0.3-0.1c0-0.1,0-0.2,0-0.2l0.3-0.1C26.9,25.7,27,25.5,26.9,25.2z
		 M25.4,26.5L25.4,26.5c-0.2,0.7-0.9,1.3-1.6,1.1c-0.7-0.2-1.3-0.9-1.1-1.6l0,0l0,0c0.2-0.7,0.9-1.3,1.6-1.1
		C25,25,25.5,25.7,25.4,26.5L25.4,26.5z"/>
	<path class="st1" d="M34.3,23.6h-0.6c0-0.2-0.1-0.3-0.2-0.5l0.5-0.2c0.2-0.2,0.3-0.4,0.2-0.6c-0.2-0.2-0.4-0.3-0.6-0.2l-0.5,0.2
		c-0.1-0.2-0.2-0.2-0.4-0.4l0.2-0.5c0.2-0.2,0.1-0.6-0.2-0.6c-0.2-0.2-0.6-0.1-0.6,0.2l-0.2,0.5c-0.2-0.1-0.3-0.1-0.5-0.2v-0.6
		c0-0.2-0.2-0.5-0.5-0.5s-0.5,0.2-0.5,0.5v0.6c-0.2,0-0.3,0.1-0.5,0.2l-0.2-0.5c-0.2-0.2-0.4-0.3-0.6-0.2s-0.3,0.4-0.2,0.6l0.2,0.5
		c-0.2,0.1-0.2,0.2-0.4,0.4l-0.5-0.2c-0.2-0.2-0.6-0.1-0.6,0.2c-0.2,0.2-0.1,0.6,0.2,0.6l0.5,0.2c-0.1,0.2-0.1,0.3-0.2,0.5h-0.6
		c-0.2,0-0.5,0.2-0.5,0.5l0,0l0,0c0,0.2,0.2,0.5,0.5,0.5h0.6c0,0.2,0.1,0.3,0.2,0.5l-0.5,0.2c-0.2,0.2-0.3,0.4-0.2,0.6
		s0.4,0.3,0.6,0.2l0.5-0.2c0.1,0.2,0.2,0.2,0.4,0.4l-0.2,0.5c-0.2,0.2-0.1,0.6,0.2,0.6c0.2,0.2,0.6,0.1,0.6-0.2l0.2-0.5
		c0.2,0.1,0.3,0.1,0.5,0.2v0.6c0,0.2,0.2,0.5,0.5,0.5c0.2,0,0.5-0.2,0.5-0.5v-0.6c0.2,0,0.3-0.1,0.5-0.2l0.2,0.5
		c0.2,0.2,0.4,0.3,0.6,0.2c0.2-0.2,0.3-0.4,0.2-0.6l-0.2-0.5c0.2-0.1,0.2-0.2,0.4-0.4l0.5,0.2c0.2,0.2,0.6,0.1,0.6-0.2
		c0.2-0.2,0.1-0.6-0.2-0.6L33.6,25c0.1-0.2,0.1-0.3,0.2-0.5h0.6c0.2,0,0.5-0.2,0.5-0.5l0,0l0,0C34.8,23.8,34.5,23.6,34.3,23.6z
		 M32.8,24L32.8,24c0,1-0.9,1.9-1.9,1.9c-1,0-1.9-0.9-1.9-1.9l0,0l0,0c0-1,0.9-1.9,1.9-1.9C32,22.1,32.8,23,32.8,24L32.8,24z"/>
</g>
</svg>
